<svg width="66" height="24" viewBox="0 0 66 24" fill="none" xmlns="http://www.w3.org/2000/svg">
<path d="M62.8016 11.8592C63.6137 11.8592 64.2721 11.2066 64.2721 10.4016C64.2721 9.59662 63.6137 8.94403 62.8016 8.94403C61.9894 8.94403 61.3311 9.59662 61.3311 10.4016C61.3311 11.2066 61.9894 11.8592 62.8016 11.8592Z" fill="#00F500"/>
<path d="M46.8905 13.8362C46.1433 13.8362 45.5551 13.2532 45.5551 12.4968C45.5551 11.7404 46.1433 11.1574 46.8905 11.1574C47.6377 11.1574 48.2418 11.7404 48.2418 12.4968C48.2418 13.2532 47.6377 13.8362 46.8905 13.8362ZM48.2418 11.118H48.0828C47.7887 10.5901 47.2402 10.2907 46.6123 10.2907C45.5789 10.2907 44.6171 11.2519 44.6171 12.4968C44.6171 13.7417 45.5551 14.6872 46.6123 14.6872C47.2402 14.6872 47.7887 14.3878 48.0828 13.8599H48.2418V14.5769H49.1638V10.3931H48.2418V11.118ZM3.99882 13.8362C3.25163 13.8362 2.66342 13.2532 2.66342 12.4968C2.66342 11.7404 3.25163 11.1574 3.99882 11.1574C4.746 11.1574 5.35011 11.7404 5.35011 12.4968C5.35011 13.2532 4.746 13.8362 3.99882 13.8362ZM5.35011 11.118H5.19114C4.89703 10.5901 4.34856 10.2907 3.72061 10.2907C2.68727 10.2907 1.72546 11.2519 1.72546 12.4968C1.72546 13.7417 2.66342 14.6872 3.72061 14.6872C4.34856 14.6872 4.89703 14.3878 5.19114 13.8599H5.35011V14.5769H6.27217V10.3931H5.35011V11.118ZM53.5595 12.0477H51.3974V10.3931H50.4754V14.5847H51.3974V12.9223H53.5595V14.5847H54.4816V10.3931H53.5595V12.0477ZM57.7406 12.4417L59.9265 10.3931H58.6626L56.6993 12.3156V10.3931H55.7772V14.5847H56.6993V12.6544L58.6785 14.5847H60.0378L57.7406 12.4417ZM42.4233 13.7653H40.9368V12.7095H42.4233C42.8446 12.7095 43.0433 12.9302 43.0433 13.2374C43.0433 13.5447 42.8525 13.7653 42.4233 13.7653ZM42.5266 11.8901H40.9289V11.2047H43.6394V10.3931H40.0068V14.5847H42.5345C43.401 14.5847 43.9892 14.0175 43.9892 13.2453C43.9892 12.4732 43.3851 11.8901 42.5266 11.8901ZM31.3188 13.8284C30.5557 13.8284 29.9914 13.2453 29.9914 12.4968C29.9914 11.7404 30.5557 11.1574 31.3188 11.1574C32.058 11.1574 32.6463 11.7404 32.6463 12.4968C32.6463 13.2453 32.0739 13.8284 31.3188 13.8284ZM31.3188 10.2907C30.206 10.2907 29.3078 11.0471 29.109 12.0556H28.3301V10.3931H27.4001V14.5847H28.3221V12.9144H29.1011C29.2919 13.9308 30.206 14.695 31.3109 14.695C32.5588 14.695 33.5683 13.7181 33.5683 12.5047C33.5763 11.2677 32.5588 10.2907 31.3188 10.2907ZM33.9101 11.2598H35.4601V14.5769H36.3822V11.2598H37.9322V10.3931H33.9101V11.2598ZM23.7198 10.3931L21.9074 14.5847H22.8851L24.2921 11.2362L25.699 14.5847H26.7165L24.9041 10.3931H23.7198ZM14.4356 11.1495C15.3417 11.1495 15.5961 11.8429 15.5961 11.8429H16.5738C16.5738 11.8429 16.1843 10.2907 14.4356 10.2907C13.1797 10.2907 12.194 11.2677 12.194 12.4968C12.194 13.7338 13.1797 14.7029 14.4356 14.7029C16.1843 14.7029 16.5738 13.1508 16.5738 13.1508H15.5961C15.5961 13.1508 15.3417 13.8441 14.4356 13.8441C13.6963 13.8441 13.1399 13.2611 13.1399 12.5047C13.1399 11.7483 13.6963 11.1495 14.4356 11.1495ZM10.0081 13.7496H8.50578V12.7095H10.0002C10.4214 12.7095 10.6202 12.9302 10.6202 13.2374C10.6202 13.5447 10.4373 13.7496 10.0081 13.7496ZM10.1194 11.8901H8.50578V11.2125H11.2243V10.3931H7.58372V14.5847H10.1194C10.9779 14.5847 11.574 14.0175 11.574 13.2453C11.574 12.4732 10.9699 11.8901 10.1194 11.8901ZM19.3877 13.8284C18.6087 13.8284 18.0364 13.2453 18.0364 12.4968C18.0364 11.7404 18.6087 11.1574 19.3877 11.1574C20.1428 11.1574 20.739 11.7404 20.739 12.4968C20.739 13.2453 20.1587 13.8284 19.3877 13.8284ZM19.3877 10.2907C18.1079 10.2907 17.0984 11.2677 17.0984 12.4968C17.0984 13.7181 18.1079 14.6872 19.3877 14.6872C20.6595 14.6872 21.6849 13.7102 21.6849 12.4968C21.6849 11.2677 20.6356 10.2907 19.3877 10.2907Z" fill="#FF5000"/>
</svg>
