<svg width="66" height="24" viewBox="0 0 66 24" fill="none" xmlns="http://www.w3.org/2000/svg">
<g clip-path="url(#clip0_1763_194189)">
<path fill-rule="evenodd" clip-rule="evenodd" d="M16.17 14.0004C16.0402 14.0004 15.9623 14.0783 15.9623 14.2082V15.325H14.2741V14.2082C14.2741 14.0783 14.1962 14.0004 14.0663 14.0004C13.9364 14.0004 13.8585 14.0783 13.8585 14.2082V16.9093C13.8585 17.0391 13.9364 17.1171 14.0663 17.1171C14.1962 17.1171 14.2741 17.0391 14.2741 16.9093V15.7146H15.9882V16.9093C15.9882 17.0391 16.0662 17.1171 16.196 17.1171C16.3259 17.1171 16.4038 17.0391 16.4038 16.9093V14.2082C16.3778 14.0783 16.2999 14.0004 16.17 14.0004ZM18.2738 15.5328L19.4685 14.338C19.5205 14.2861 19.5464 14.2341 19.5464 14.1822C19.5464 14.0783 19.4945 14.0004 19.3646 14.0004C19.3127 14.0004 19.2607 14.0264 19.2088 14.0783L18.04 15.2471C17.9881 15.299 17.9102 15.351 17.8063 15.351H17.5725V14.2341C17.5725 14.1043 17.4946 14.0264 17.3648 14.0264C17.2349 14.0264 17.157 14.1043 17.157 14.2341V16.9093C17.157 17.0391 17.2349 17.1171 17.3648 17.1171C17.4946 17.1171 17.5725 17.0391 17.5725 16.9093V15.7146H17.7803C17.8842 15.7146 17.9362 15.7405 18.0141 15.8185L19.2348 17.0391C19.2867 17.0911 19.3387 17.1171 19.3906 17.1171C19.4945 17.1171 19.5724 17.0391 19.5724 16.9353C19.5724 16.8573 19.5464 16.8314 19.4945 16.7535L18.2738 15.5328ZM20.845 10.3123C20.6632 10.4162 20.4035 10.4682 20.1698 10.4682C19.7802 10.4682 19.5205 10.2864 19.5205 10.0007C19.5205 9.74095 19.7282 9.53317 20.1698 9.53317C20.4035 9.53317 20.5853 9.55915 20.845 9.63706V10.3123ZM20.2217 7.81901C19.8841 7.81901 19.5724 7.89692 19.3646 8.00081C19.2088 8.07873 19.1309 8.15665 19.1309 8.28651C19.1309 8.44234 19.2607 8.54623 19.3906 8.54623C19.4685 8.54623 19.5464 8.52026 19.6244 8.49429C19.7542 8.44234 19.962 8.3904 20.1698 8.3904C20.6373 8.3904 20.845 8.5722 20.845 8.93581V9.19554C20.5594 9.11762 20.3516 9.09165 20.0919 9.09165C19.3127 9.09165 18.9231 9.53317 18.9231 10.0266C18.9231 10.598 19.3387 11.0136 20.0919 11.0136C20.6892 11.0136 21.1307 10.8318 21.3125 10.7019C21.3905 10.65 21.4164 10.598 21.4164 10.4682V8.96179C21.4164 8.18262 20.9749 7.81901 20.2217 7.81901ZM27.6498 9.81887C27.5199 9.81887 27.442 9.89679 27.39 10.0007C27.2862 10.2344 27.0524 10.3903 26.7407 10.3903C26.2992 10.3903 26.0395 10.1305 26.0135 9.74095C25.9875 9.53317 25.9875 9.29942 26.0135 9.09165C26.0395 8.70206 26.2992 8.44234 26.7407 8.44234C27.0524 8.44234 27.2862 8.59817 27.39 8.83192C27.442 8.90984 27.5199 9.01373 27.6498 9.01373C27.8316 9.01373 27.9614 8.90984 27.9614 8.72804C27.9614 8.62415 27.9355 8.54623 27.8835 8.44234C27.7017 8.1047 27.3121 7.81901 26.7407 7.81901C25.9875 7.81901 25.4681 8.28651 25.4162 8.98776C25.3902 9.22151 25.3902 9.58512 25.4162 9.81887C25.4941 10.4941 25.9875 10.9876 26.7407 10.9876C27.3121 10.9876 27.7017 10.7279 27.8835 10.3903C27.9355 10.2864 27.9614 10.2085 27.9614 10.1046C27.9614 9.92276 27.8316 9.81887 27.6498 9.81887ZM13.7806 10.4422L12.7157 9.37734L13.7287 8.36442C13.8066 8.28651 13.8585 8.20859 13.8585 8.13067C13.8585 7.97484 13.7546 7.87095 13.5988 7.87095C13.5209 7.87095 13.443 7.89692 13.365 8.00081L12.3262 9.0397C12.2742 9.09165 12.2223 9.11762 12.1184 9.11762H11.9106V8.20859C11.9106 8.00081 11.7807 7.87095 11.5989 7.87095C11.4171 7.87095 11.2873 8.00081 11.2873 8.20859V10.676C11.2873 10.8837 11.4171 11.0136 11.5989 11.0136C11.7807 11.0136 11.9106 10.8837 11.9106 10.676V9.68901H12.0924C12.1703 9.68901 12.2223 9.71498 12.3002 9.76692L13.391 10.8578C13.4949 10.9616 13.5469 10.9876 13.6507 10.9876C13.8066 10.9876 13.9364 10.8837 13.9364 10.7019C13.9105 10.598 13.8585 10.5201 13.7806 10.4422ZM24.1955 9.74095C24.1695 10.1305 23.9098 10.3903 23.4682 10.3903C23.2345 10.3903 22.9488 10.3123 22.793 10.2085V8.59817C22.9228 8.49429 23.2345 8.41637 23.4682 8.41637C23.9098 8.41637 24.1695 8.67609 24.1955 9.06567C24.1955 9.27345 24.1955 9.53317 24.1955 9.74095ZM23.4682 7.81901C22.9228 7.81901 22.5073 8.00081 22.3255 8.1047C22.1956 8.18262 22.1696 8.26054 22.1696 8.49429V11.6369C22.1696 11.8447 22.2995 11.9746 22.4813 11.9746C22.6631 11.9746 22.793 11.8447 22.793 11.6369V10.8058C22.9748 10.8837 23.2605 10.9616 23.5202 10.9616C24.2214 10.9616 24.7149 10.4941 24.7928 9.7929C24.8188 9.55915 24.8188 9.16956 24.7928 8.93581C24.7409 8.31248 24.2474 7.81901 23.4682 7.81901ZM12.7157 16.5457C12.482 16.6755 12.1703 16.7535 11.8846 16.7535C11.3652 16.7535 11.0795 16.5457 11.0795 16.1561C11.0795 15.8185 11.3392 15.5587 11.8846 15.5587C12.1444 15.5587 12.3781 15.6107 12.7157 15.6886V16.5457ZM11.9885 13.9744C11.6249 13.9744 11.2873 14.0783 11.1055 14.1562C10.9756 14.2082 10.9237 14.2601 10.9237 14.364C10.9237 14.4679 11.0016 14.5458 11.1055 14.5458C11.1574 14.5458 11.2094 14.5198 11.2613 14.4939C11.4171 14.4419 11.6769 14.364 11.9366 14.364C12.456 14.364 12.7157 14.5718 12.7157 15.0653V15.351C12.3781 15.2471 12.1444 15.2211 11.8587 15.2211C11.0795 15.2211 10.6899 15.6626 10.6899 16.1561C10.6899 16.7535 11.1314 17.143 11.8327 17.143C12.4041 17.143 12.8456 16.9353 13.0274 16.8314C13.1053 16.7794 13.1053 16.7535 13.1053 16.6496V15.0653C13.1053 14.3121 12.6898 13.9744 11.9885 13.9744ZM9.00171 16.6755H7.85894V15.0393H9.00171C9.59908 15.0393 9.8588 15.351 9.8588 15.8704C9.8588 16.3898 9.59908 16.6755 9.00171 16.6755ZM9.05366 14.6497H7.85894V13.3771H9.8588C9.98866 13.3771 10.0925 13.2991 10.0925 13.1693C10.0925 13.0394 9.98866 12.9615 9.8588 12.9615H7.80699C7.57324 12.9615 7.44338 13.0914 7.44338 13.3251V16.7015C7.44338 16.9353 7.57324 17.0651 7.80699 17.0651H9.05366C9.83282 17.0651 10.2744 16.6236 10.2744 15.8185C10.2744 15.0912 9.83282 14.6497 9.05366 14.6497ZM16.1441 8.98776H17.157C17.6245 8.98776 17.8582 9.22151 17.8582 9.66304C17.8582 10.0786 17.6505 10.3383 17.157 10.3383H16.1441V8.98776ZM15.9882 10.9357H17.2089C18.0141 10.9357 18.4816 10.4682 18.4816 9.63706C18.4816 8.8579 18.0141 8.41637 17.2089 8.41637H16.1441V7.42942H17.9621C18.1699 7.42942 18.2998 7.29956 18.2998 7.11776C18.2998 6.93595 18.1699 6.83206 17.9621 6.83206H15.9882C15.6766 6.83206 15.4948 7.01387 15.4948 7.32554V10.4682C15.5207 10.7798 15.6766 10.9357 15.9882 10.9357ZM8.32644 9.09165L8.89783 7.48137C8.9238 7.42942 8.94977 7.40345 8.97574 7.40345C9.02769 7.40345 9.02769 7.42942 9.05366 7.48137L9.62505 9.09165H8.32644ZM10.8198 10.676C10.8198 10.624 10.8198 10.5721 10.7678 10.4682L9.62505 7.35151C9.49519 6.96192 9.28741 6.80609 8.97574 6.80609C8.66408 6.80609 8.4563 6.96192 8.32644 7.35151L7.18366 10.4682C7.15769 10.5721 7.13171 10.624 7.13171 10.676C7.13171 10.8318 7.26157 10.9616 7.44338 10.9616C7.59921 10.9616 7.7031 10.8837 7.75505 10.7019L8.11866 9.63706H9.80685L10.1705 10.7019C10.2224 10.8837 10.3523 10.9616 10.4821 10.9616C10.6899 10.9616 10.8198 10.8318 10.8198 10.676Z" fill="#353535"/>
<path fill-rule="evenodd" clip-rule="evenodd" d="M58.6996 11.6889C58.284 10.624 57.2192 10.0266 56.1024 10.2344L53.7649 10.65C53.3753 10.7279 53.1155 11.0915 53.1935 11.4811C53.2714 11.8707 53.635 12.1304 54.0246 12.0525L56.3621 11.6369C56.9075 11.533 57.2711 11.8707 57.401 12.2083C57.5308 12.546 57.5049 13.0394 57.0374 13.3251L53.609 15.5328C53.2974 15.7405 52.9078 15.7405 52.5701 15.5847C52.2325 15.4029 52.0507 15.0653 52.0507 14.7016V7.50734C52.0507 7.11776 51.739 6.80609 51.3494 6.80609C50.9599 6.80609 50.6482 7.11776 50.6482 7.50734V14.7016C50.6482 15.6107 51.1157 16.4158 51.9208 16.8314C52.2844 17.0391 52.7 17.143 53.0896 17.143C53.5571 17.143 53.9986 17.0132 54.4142 16.7535L57.8425 14.5458C58.7515 13.8965 59.1151 12.7537 58.6996 11.6889ZM46.6485 10.2344L44.311 10.65C43.9214 10.7279 43.6617 11.0915 43.7396 11.4811C43.8175 11.8707 44.1811 12.1304 44.5707 12.0525L46.9082 11.6369C47.4536 11.533 47.8172 11.8707 47.9471 12.2083C48.0769 12.546 48.051 13.0394 47.5835 13.3251L44.1551 15.5328C43.8435 15.7405 43.4539 15.7405 43.1162 15.5847C42.7786 15.4029 42.5968 15.0653 42.5968 14.7016V9.24748C42.5968 8.33845 42.1293 7.53331 41.3242 7.11776C40.519 6.7022 39.61 6.72817 38.8308 7.22165L30.234 12.7797C29.273 13.403 28.9094 14.5458 29.325 15.6107C29.7405 16.6755 30.8054 17.2729 31.9222 17.0651L39.4282 15.7146C39.8178 15.6366 40.0775 15.273 39.9996 14.8835C39.9217 14.4939 39.558 14.2341 39.1685 14.3121L31.6625 15.6626C31.1171 15.7665 30.7535 15.4289 30.6236 15.0912C30.4937 14.7536 30.5197 14.2601 30.9872 13.9744L39.584 8.3904C39.8957 8.18262 40.2853 8.18262 40.6229 8.33845C40.9605 8.52026 41.1424 8.8579 41.1424 9.22151V14.6757C41.1424 15.5847 41.6099 16.3898 42.415 16.8054C42.7786 17.0132 43.1942 17.1171 43.5837 17.1171C44.0512 17.1171 44.4928 16.9872 44.9083 16.7275L48.3367 14.5198C49.2976 13.8965 49.6612 12.7537 49.2457 11.6889C48.8301 10.624 47.7912 10.0266 46.6485 10.2344Z" fill="#439846"/>
</g>
<defs>
<clipPath id="clip0_1763_194189">
<rect width="51.7367" height="10.3889" fill="white" transform="translate(7.13171 6.80554)"/>
</clipPath>
</defs>
</svg>
