<svg width="66" height="24" viewBox="0 0 66 24" fill="none" xmlns="http://www.w3.org/2000/svg">
<path d="M55.7676 9.04263L54.0995 10.9033V9.04263H52.8924V13.7398H54.0995V11.7629L55.885 13.7398H57.4444L55.2483 11.2787L57.2854 9.04263H55.7676Z" fill="#EF3124"/>
<path d="M50.764 10.7945H49.0959V9.04263H47.8881V13.7398H49.0959V11.8878H50.764V13.7398H51.9711V9.04263H50.764V10.7945Z" fill="#EF3124"/>
<path d="M15.7231 11.5873C15.6943 12.4635 15.5809 12.6385 15.0857 12.6385V13.7398H15.2702C16.5042 13.7398 16.8008 13.1053 16.8464 11.6954L16.8967 10.1353H18.0535V13.7398H19.2606V9.04263H15.807L15.7231 11.5873Z" fill="#EF3124"/>
<path d="M22.2613 10.4692H21.3897V9.04196H20.1826V13.7398H22.2781C23.5946 13.7398 24.0636 12.889 24.0636 12.0875C24.0636 11.0529 23.4094 10.4686 22.2613 10.4686M22.1694 12.7046H21.3897V11.5118H22.1694C22.5888 11.5118 22.8397 11.6954 22.8397 12.0875C22.8397 12.5129 22.5968 12.7046 22.1694 12.7046Z" fill="#EF3124"/>
<path d="M27.995 8.93376V7.18992H26.7879V8.93376C25.405 9.05064 24.4743 10.0271 24.4743 11.3869C24.4743 12.7467 25.405 13.7318 26.7879 13.8487V15.6179H27.995V13.8487C29.3779 13.7405 30.3086 12.7554 30.3086 11.3869C30.3086 10.0184 29.3779 9.04196 27.995 8.93376ZM26.7879 12.714C26.1176 12.6225 25.6982 12.1216 25.6982 11.3876C25.6982 10.6536 26.1176 10.1526 26.7879 10.0611V12.7146V12.714ZM27.995 12.714V10.0605C28.6653 10.1526 29.0847 10.6529 29.0847 11.3869C29.0847 12.1209 28.6653 12.6218 27.995 12.7133" fill="#EF3124"/>
<path d="M34.8358 12.2965V10.7197C34.8358 9.56825 34.0984 8.84226 32.8577 8.84226C31.6171 8.84226 30.8964 9.61033 30.8374 10.4111H32.0613C32.1029 10.2361 32.2874 9.93558 32.8577 9.93558C33.3274 9.93558 33.6287 10.1526 33.6287 10.7197H32.4296C31.3567 10.7197 30.7193 11.2787 30.7193 12.2131C30.7193 13.1474 31.4164 13.8567 32.4209 13.8567C33.1577 13.8567 33.567 13.5101 33.7455 13.2476C33.9045 13.5648 34.2568 13.7398 34.7177 13.7398H35.1371V12.6552C34.919 12.6552 34.8352 12.555 34.8352 12.2965M33.628 11.988C33.628 12.5303 33.2422 12.8389 32.7396 12.8389C32.3035 12.8389 31.9599 12.6806 31.9599 12.2131C31.9599 11.7455 32.337 11.6794 32.6638 11.6794H33.628V11.988Z" fill="#EF3124"/>
<path d="M40.0086 9.70984H38.6592V8.38343H41.786V7.18992H37.3937V13.7398H40.0092C41.4593 13.7398 42.2893 13.0225 42.2893 11.7041C42.2893 10.4612 41.4593 9.70984 40.0092 9.70984M39.9509 12.555H38.6599V10.8526H39.9509C40.6212 10.8526 40.999 11.1611 40.999 11.7035C40.999 12.2458 40.6218 12.5543 39.9509 12.5543" fill="#EF3124"/>
<path d="M46.9078 12.2965V10.7197C46.9078 9.56825 46.1703 8.84226 44.9297 8.84226C43.689 8.84226 42.9683 9.61033 42.9093 10.4111H44.1332C44.1748 10.2361 44.3593 9.93558 44.9297 9.93558C45.3994 9.93558 45.7006 10.1526 45.7006 10.7197H44.5016C43.4286 10.7197 42.7912 11.2787 42.7912 12.2131C42.7912 13.1474 43.4884 13.8567 44.4928 13.8567C45.2296 13.8567 45.6389 13.5101 45.8174 13.2476C45.9764 13.5648 46.3287 13.7398 46.7897 13.7398H47.209V12.6552C46.991 12.6552 46.9071 12.555 46.9071 12.2965M45.7 11.988C45.7 12.5303 45.3141 12.8389 44.8116 12.8389C44.3754 12.8389 44.0319 12.6806 44.0319 12.2131C44.0319 11.7455 44.409 11.6794 44.7357 11.6794H45.7V11.988Z" fill="#EF3124"/>
<path d="M15.0105 15.5538H8.55554V16.8889H15.0105V15.5538Z" fill="#EF3124"/>
<path d="M12.9566 8.08889C12.7721 7.54257 12.5601 7.11111 11.8334 7.11111C11.1067 7.11111 10.8805 7.54056 10.6873 8.08889L8.68974 13.7398H10.0143L10.4753 12.3967H13.0237L13.4511 13.7398H14.8596L12.9566 8.08889ZM10.8611 11.262L11.7663 8.58379H11.7998L12.6547 11.262H10.8604H10.8611Z" fill="#EF3124"/>
</svg>
