<svg width="66" height="24" viewBox="0 0 66 24" fill="none" xmlns="http://www.w3.org/2000/svg">
<g clip-path="url(#clip0_1763_194207)">
<path fill-rule="evenodd" clip-rule="evenodd" d="M18.3518 5.88846L17.7743 7.48713H25.7772L26.3547 5.88846H18.3518ZM17.4854 8.2861L16.9078 9.88441H24.9108L25.4883 8.2861H17.4854ZM16.6207 10.6837L16.0432 12.2821H24.0461L24.6233 10.6837H16.6207Z" fill="#009FDF"/>
<path fill-rule="evenodd" clip-rule="evenodd" d="M33.0578 12.8916V12.9253C33.4235 13.061 33.7729 13.2982 33.9559 13.4506C34.5215 13.925 34.7711 14.5518 34.7711 15.3651C34.7711 16.7039 34.0724 17.6695 32.9246 17.9746C32.5752 18.0762 32.2095 18.1103 31.5272 18.1103H28.051V8.31717H31.1283C31.7604 8.31717 32.1928 8.3509 32.5752 8.45246C33.6899 8.75752 34.4217 9.53704 34.4217 10.7736C34.4217 11.4345 34.1888 11.9938 33.8064 12.3664C33.6401 12.5358 33.4071 12.7393 33.0578 12.8916ZM29.9805 13.925V16.5004H31.3114C31.7102 16.5004 32.0763 16.4667 32.3427 16.2124C32.6087 15.9581 32.7252 15.6364 32.7252 15.2127C32.7252 14.891 32.6418 14.5859 32.4755 14.3658C32.1928 14.0099 31.8434 13.925 31.2448 13.925H29.9805ZM29.9638 12.2307H31.045C31.3776 12.2307 31.5439 12.2307 31.7102 12.1799C32.1596 12.0443 32.4424 11.638 32.4424 11.0787C32.4424 10.4181 32.1429 10.1297 31.7102 9.99445C31.5272 9.94367 31.3445 9.92662 30.9784 9.92662H29.9638V12.2307ZM37.6653 18.1103V9.96035H34.8876V8.31717H42.6059L42.0571 9.96035H39.5948V18.1103H37.6653ZM43.2045 18.1103V8.31717H49.4591L48.9103 9.96035H45.1176V12.1291H46.6646C47.9121 12.1291 48.561 12.4342 49.0101 12.8238C49.3594 13.1288 49.9581 13.8064 49.9581 15.1453C49.9581 16.4667 49.3427 17.1951 48.827 17.568C48.2284 17.9913 47.5962 18.1103 46.3153 18.1103H43.2045ZM45.1176 16.4667H46.5649C47.1137 16.4667 47.4463 16.331 47.6792 16.026C47.7957 15.8736 47.962 15.6023 47.962 15.0941C47.962 14.5859 47.7957 14.2301 47.4631 13.9758C47.2636 13.8235 46.9972 13.739 46.5482 13.739H45.1176V16.4667Z" fill="#0A2973"/>
</g>
<defs>
<clipPath id="clip0_1763_194207">
<rect width="33.9136" height="12.2222" fill="white" transform="translate(16.0432 5.88889)"/>
</clipPath>
</defs>
</svg>
