<svg width="66" height="24" viewBox="0 0 66 24" fill="none" xmlns="http://www.w3.org/2000/svg">
<path d="M54.6341 9.60706H55.6827V11.2887H55.9003L56.4939 9.60706H57.6216L56.8104 11.8229L57.7403 14.2761H56.5136L55.9201 12.3966H55.6827V14.2761H54.6341V9.60706ZM51.1323 9.60706H52.1611V11.2887H52.8931V9.60706H53.9219V14.2761H52.8931V12.3966H52.1611V14.2761H51.1323V9.60706ZM47.5118 14.2959H48.5801L48.7186 13.4848H49.4507L49.5891 14.2959H50.6575L49.7474 9.62685H48.4219L47.5118 14.2959ZM49.0945 11.0315L49.2924 12.456H48.8967L49.0945 11.0315ZM44.6431 14.2761H45.9093C46.1862 14.2761 47.3337 14.1574 47.3337 12.733C47.3337 11.5459 46.4434 11.3283 45.8697 11.3283H45.6718V10.715H47.0765V9.58728H44.6431V14.2761ZM45.6718 13.3463V12.2779H45.8301C45.9488 12.2779 46.2852 12.2779 46.2852 12.7725C46.2852 13.2671 45.9488 13.3463 45.8301 13.3463H45.6718ZM40.5279 9.60706H41.4182L42.2096 10.715L43.0207 9.60706H43.911V14.2761H42.8427V11.4272L42.2096 12.2384L41.5765 11.4272V14.2761H40.5279V9.60706ZM38.3517 14.3355C39.5981 14.3355 40.0333 13.1286 40.0333 11.9416C40.0333 10.7545 39.6178 9.54771 38.3517 9.54771C37.1052 9.54771 36.67 10.7545 36.67 11.9416C36.67 13.1286 37.0855 14.3355 38.3517 14.3355ZM38.3517 13.2078C37.9757 13.2078 37.7977 12.7725 37.7977 11.9416C37.7977 11.1107 37.9955 10.6754 38.3517 10.6754C38.7276 10.6754 38.9056 11.1107 38.9056 11.9416C38.9056 12.7725 38.7276 13.2078 38.3517 13.2078ZM33.6034 14.2761H34.652V12.733H35.0081C36.0567 12.733 36.3732 11.7635 36.3732 11.1502C36.3732 10.5567 35.9973 9.58728 35.0081 9.58728H33.6034C33.6034 9.60706 33.6034 14.2761 33.6034 14.2761ZM34.6718 10.6358H34.929C35.1664 10.6358 35.3247 10.7941 35.3247 11.17C35.3247 11.6646 35.0675 11.7042 34.929 11.7042H34.6718V10.6358ZM30.1214 9.60706H33.0099V14.2761H31.9613V10.7348H31.1897V14.2761H30.1412L30.1214 9.60706ZM27.9451 11.4272C28.1232 11.4272 28.4199 11.3085 28.4199 10.9722C28.4199 10.5567 28.0638 10.5369 27.9451 10.5369C27.8264 10.5369 27.589 10.5567 27.3714 10.6754L27.3516 9.66641C27.7077 9.56749 27.9649 9.54771 28.2814 9.54771C29.1519 9.54771 29.5278 10.161 29.5278 10.7743C29.5278 11.3679 29.1915 11.724 28.875 11.8625V11.902C29.1915 12.0009 29.607 12.3175 29.607 13.0297C29.607 13.92 29.0135 14.3948 28.2419 14.3948C27.8264 14.3948 27.5692 14.3355 27.2329 14.1574L27.2527 13.188C27.5494 13.3265 27.7473 13.3265 27.9649 13.3265C28.3012 13.3265 28.4397 13.0693 28.4397 12.8912C28.4397 12.634 28.2814 12.456 27.9055 12.456H27.4703V11.447H27.9451V11.4272ZM23.7904 14.2761H24.8588L24.9972 13.465H25.7293L25.848 14.2761H26.9163L26.0062 9.60706H24.6807C24.7005 9.60706 23.7904 14.2761 23.7904 14.2761ZM25.3534 11.0117L25.5512 12.4362H25.1555L25.3534 11.0117ZM21.7328 9.60706H23.9091V10.7743H22.821V14.2761H21.7526V9.60706H21.7328Z" fill="#476BF0"/>
<path d="M8.53662 12C8.53662 14.8687 10.8316 17.223 13.641 17.223C16.4503 17.223 18.7255 14.8885 18.7255 12C18.7255 9.11151 16.4306 6.77698 13.641 6.77698C10.8118 6.77698 8.53662 9.11151 8.53662 12ZM8.25964 12C8.25964 8.97302 10.6733 6.5 13.6212 6.5C16.5691 6.5 18.9827 8.97302 18.9827 12C18.9827 15.027 16.5691 17.5 13.6212 17.5C10.6733 17.5 8.25964 15.027 8.25964 12Z" fill="#476BF0"/>
<path d="M12.0185 8.51828C11.8404 8.59741 11.6623 8.69633 11.4843 8.81504C12.7703 8.2413 14.3332 8.28087 15.1839 8.67655C15.4411 8.79525 15.6192 8.87439 15.6983 9.03266C14.8278 8.79525 14.4519 8.75569 13.7199 8.77547C12.6911 8.79525 11.3062 9.21072 10.7918 9.52727L10.5544 9.82403C11.3062 9.369 12.7307 9.07223 13.5023 9.03266C14.3728 9.01288 15.0455 9.1118 15.6786 9.32943C15.639 9.4877 15.5598 9.56684 15.4214 9.64597C12.9285 9.19094 11.4447 9.72511 10.1192 10.6154L10.04 10.9122C11.5238 9.8636 13.344 9.58662 15.1048 9.88338C14.4717 10.101 13.7199 10.1604 13.0868 10.2989C12.5526 10.4176 12.2559 10.4571 11.5436 10.7143C10.8116 10.9517 10.3961 11.2089 10.1192 11.5255C10.0005 11.6837 9.90153 11.842 9.86197 12.0399C9.84218 12.1586 9.86197 12.2575 9.90153 12.3564C9.92132 12.4355 10.0005 12.5345 10.0796 12.6136C10.0005 12.7719 9.92132 12.9499 10.04 13.1873C10.0994 13.2863 10.2379 13.405 10.3764 13.5039L10.3368 13.6226C10.317 13.7611 10.2972 13.9194 10.3961 14.0381C10.5346 14.2755 10.7127 14.4337 11.0095 14.592C11.049 14.7899 11.1282 14.9481 11.2667 15.0866C11.5832 15.3834 12.2757 15.9373 13.5221 16.0363C14.4519 16.0956 15.1246 15.8186 15.362 15.6801L15.6588 15.5219C15.1444 15.7395 14.2739 15.8582 13.5418 15.7989C12.4933 15.7197 11.5832 15.0075 11.4645 14.8096C11.5041 14.8294 11.5436 14.8492 11.5832 14.869C12.8098 15.4625 14.3728 15.7989 16.3908 14.9481L16.5491 14.7899C14.7289 15.3636 13.1264 15.3636 11.4051 14.4337C11.4249 14.3546 11.4645 14.2755 11.5436 14.2161C11.9789 14.414 12.4141 14.5722 12.9285 14.6909C13.5221 14.8096 14.2145 14.8294 14.7685 14.8096C15.3422 14.7899 16.4699 14.4931 17.0041 14.2161C17.0437 14.1765 17.0832 14.0974 17.1228 14.0381C16.0742 14.4337 14.8476 14.6118 14.0958 14.5524C13.3638 14.4931 12.7109 14.414 11.8602 13.9985C12.0185 13.9391 12.1965 13.8798 12.3746 13.8204C12.9285 13.9985 13.5023 14.0974 14.1947 14.137C14.8674 14.1766 16.4304 13.9194 17.4196 13.306C17.4591 13.2269 17.4789 13.128 17.4789 13.128C17.4789 13.128 16.094 13.8798 14.5508 13.8798C13.8188 13.8798 13.3836 13.7809 13.0472 13.6819C13.7793 13.5435 14.7091 13.4248 15.7379 13.1676C16.2721 13.0291 16.9052 12.7125 17.2019 12.4553C17.4591 12.2179 17.657 11.9212 17.5778 11.6244C17.5581 11.5453 17.4591 11.3474 17.3207 11.2881C17.4394 11.11 17.4394 10.9715 17.4196 10.8528C17.3998 10.7539 17.3602 10.655 17.3009 10.556C17.2217 10.4373 17.1426 10.3582 16.9645 10.2593C16.9843 10.1208 16.9645 9.98231 16.925 9.8636C16.8063 9.64597 16.5688 9.44813 16.1732 9.23051C16.1534 9.15137 16.1138 9.03267 16.0149 8.93374C15.5203 8.39957 14.6893 8.16216 13.9969 8.14238C13.9573 8.14238 13.9177 8.14238 13.8782 8.14238C13.0868 8.14238 12.4339 8.34022 12.0185 8.51828ZM15.9357 9.78446C15.9951 9.72511 16.094 9.60641 16.1138 9.52727C16.2919 9.64597 16.4897 9.80425 16.5095 9.98231C16.3314 9.90317 16.1336 9.82403 15.9357 9.78446ZM16.094 10.5363C15.7973 10.4571 15.5401 10.3582 15.2037 10.2989C15.4214 10.2197 15.5598 10.1208 15.6786 10.0219C15.9555 10.101 16.2127 10.1999 16.4106 10.2791C16.371 10.3384 16.1732 10.556 16.094 10.5363ZM16.6282 10.7737C16.7073 10.7143 16.7865 10.6352 16.8458 10.556C17.0041 10.6945 17.0635 10.7935 16.9843 10.9517C16.8656 10.8726 16.7469 10.833 16.6282 10.7737ZM10.3368 12.3168C9.88175 11.6837 11.4645 11.2287 11.7613 11.1298C12.5328 10.8924 13.4231 10.7143 14.2343 10.6154C14.7883 10.5363 15.085 10.6154 15.6192 10.7539C14.2739 11.1298 12.9285 11.2485 11.6623 11.6244C10.6138 11.9409 10.3566 12.3168 10.3368 12.3168ZM10.6731 12.6334C11.1479 12.2179 12.1174 11.9805 12.4735 11.9014C13.6012 11.6442 14.6498 11.4859 15.085 11.387C15.6192 11.2485 15.9753 11.1298 16.2325 11.0111C16.2523 10.9913 16.6678 11.1891 16.7073 11.2485C16.5688 11.3672 16.371 11.4661 16.1534 11.5453C15.5203 11.7827 14.353 12.0399 13.7199 12.1388C13.0868 12.2377 12.5724 12.3168 11.88 12.5147C11.4843 12.6136 11.2073 12.7521 11.0095 12.8708C10.9105 12.7719 10.8116 12.7323 10.6731 12.6334ZM11.5634 13.128C11.7613 13.0489 11.9789 12.9697 12.1965 12.9104C13.2649 12.6334 14.2145 12.5938 15.5401 12.2179C16.1732 12.0399 16.6282 11.8618 16.925 11.6442C16.9645 11.6046 17.0041 11.565 17.0437 11.5453C17.4196 12.1388 15.9951 12.6136 15.0257 12.8312C14.5113 12.9301 14.0167 13.0291 13.5023 13.128C12.8692 13.2269 12.6516 13.2863 12.2163 13.4248C11.9987 13.3258 11.7613 13.2269 11.5634 13.128ZM10.4159 12.9301C10.5148 12.9895 10.594 13.0489 10.7127 13.1082C10.6731 13.1478 10.6138 13.1873 10.5742 13.2269C10.4753 13.1676 10.3764 13.0489 10.4159 12.9301ZM10.9303 13.5237C10.9897 13.4643 11.0688 13.405 11.1479 13.3456C11.326 13.4248 11.5238 13.5237 11.7019 13.6028C11.5832 13.6424 11.4645 13.7017 11.3656 13.7809C11.2271 13.6819 11.0688 13.6028 10.9303 13.5237ZM10.772 13.8204C10.871 13.8996 10.9897 13.9391 11.0886 13.9985C11.049 14.0578 11.0095 14.1172 10.9897 14.1765C10.8314 14.0381 10.772 13.9391 10.772 13.8204Z" fill="#476BF0"/>
</svg>
