<svg width="66" height="24" viewBox="0 0 66 24" fill="none" xmlns="http://www.w3.org/2000/svg">
<path d="M17.06 18.0753H12.6378V16.2066H17.0502V18.0753H17.06ZM17.9503 15.2674H11.7572V19.944H12.6378V19.0048H17.9308V15.2674H17.9503ZM12.6378 6.86306L14.4086 4.99436V11.5397H12.6378V6.86306ZM11.7572 12.4692H15.2794V4.05511H13.9683L11.7572 6.39344V12.4692ZM17.06 4.99436H18.8309V11.5397H17.06V4.99436ZM16.1795 12.4692H19.7016V4.05511H16.1795V12.4692ZM25.8752 12.4692H26.7558V4.05511H25.4252V4.0649L24.0946 5.46398V4.05511H22.764L20.5724 6.39344V12.4692H21.4529V6.86306L23.2238 4.99436V12.4692H24.1044V6.86306L25.8752 4.99436V12.4692ZM11.7572 14.3379H26.7655V13.3986H11.7572V14.3379ZM23.2336 16.2066H25.8752V18.0753H23.2336V16.2066ZM22.3531 18.0753H19.7016V16.2066H22.3531V18.0753ZM23.2336 19.0048H26.7655V15.2674H18.8309V19.0048H22.3531V19.944H23.2336V19.0048ZM39.8954 12.3126H40.6684C41.0107 12.3126 41.2162 12.5572 41.2162 12.8899C41.2162 13.2421 41.0107 13.4671 40.6684 13.4671H39.8954V12.3126ZM39.8954 11.5788V10.7375H41.7347V10.0037H39.103V14.2107H40.6978C41.4902 14.2107 41.9893 13.6628 41.9893 12.8997C41.9893 12.1365 41.4998 11.5886 40.6978 11.5886C40.7075 11.5788 39.8954 11.5788 39.8954 11.5788ZM44.8558 12.7725H43.8676L44.3764 11.2462L44.8558 12.7725ZM45.3059 14.2107H46.118L44.6797 10.0037H44.0731L42.6348 14.2107H43.4469L43.6915 13.4671H45.0907L45.3059 14.2107ZM49.0432 14.2107H49.8163V10.0037H49.0432V11.7256H47.7027V10.0037H46.93V14.2107H47.7027V12.4496H49.0432V14.2107ZM52.6632 11.9702L53.994 10.0037H53.0742L51.8024 11.9996V10.0037H51.0294V14.2107H51.8024V12.0093L53.1916 14.2107H54.1405L52.6632 11.9702Z" fill="#384249"/>
<path d="M33.6257 5.84515H32.9408V18.1532H33.6257V5.84515Z" fill="#99C45A"/>
</svg>
