<svg width="66" height="24" viewBox="0 0 66 24" fill="none" xmlns="http://www.w3.org/2000/svg">
<path fill-rule="evenodd" clip-rule="evenodd" d="M7.53821 8.46353H14.5207V15.4464H7.53821V8.46353ZM7.97136 8.88128H14.1334V15.1274H7.97136V8.88128Z" fill="#335497"/>
<path fill-rule="evenodd" clip-rule="evenodd" d="M14.0122 9.03337H8.08933V14.9688H14.0122V9.03337ZM8.7671 10.2854H8.27311L8.26438 14.4368H8.75837V14.723H13.7352V9.32878H8.7671V10.2854Z" fill="#335497"/>
<path d="M8.50999 10.5066H10.4407C9.81397 11.1245 9.19603 11.7408 8.57982 12.357C9.19603 12.9907 9.81397 13.6244 10.4407 14.2563H8.50999V10.5066Z" fill="#335497"/>
<path d="M10.8437 10.4948H11.2399C10.5906 11.1111 9.93769 11.7343 9.29181 12.3558C9.93769 12.9947 10.5906 13.6336 11.2399 14.276H10.8437C10.1897 13.6371 9.53967 12.997 8.89379 12.3558C9.54493 11.7343 10.189 11.1111 10.8437 10.4948ZM11.4424 11.2717H13.4639V14.2656H11.4424V14.2325C11.4866 14.2352 11.5309 14.2352 11.5751 14.2325C12.5125 14.2377 13.2806 13.6791 13.2806 12.9808C13.2806 12.2825 12.5125 11.7151 11.5751 11.7151H11.4424V11.2717Z" fill="#335497"/>
<path d="M20.9862 14.794L21.0665 15.4504L21.1293 15.5167H21.1747C21.2733 15.5098 21.3654 15.4647 21.4313 15.3911C21.5177 15.289 21.5819 15.1701 21.6199 15.0419L20.473 12.556L20.2426 12.5002V12.1807H21.55V12.5002L21.3633 12.5228L21.3179 12.6049L22.0057 14.1167L22.4787 12.6486L22.4421 12.5508L22.2291 12.5002V12.1807H23.1612V12.5002L22.9605 12.5508L22.1645 14.8883C22.0858 15.1911 21.9396 15.4722 21.7368 15.7105C21.6595 15.7914 21.5662 15.8552 21.4628 15.8979C21.3594 15.9406 21.2482 15.9612 21.1363 15.9584C20.9406 15.9534 20.7485 15.9045 20.5742 15.8153V14.794H20.9862ZM26.1149 12.1807V13.2892H25.6924L25.6209 12.6206L25.5493 12.556H24.7132V13.7414C24.8625 13.7214 25.0129 13.7103 25.1635 13.7082C25.4595 13.6897 25.7524 13.7776 25.9892 13.9561C26.1091 14.0612 26.2031 14.1926 26.2637 14.3401C26.3242 14.4877 26.3498 14.6472 26.3383 14.8063C26.3535 15.0907 26.2563 15.3696 26.0678 15.5831C25.9535 15.687 25.8195 15.767 25.6738 15.8183C25.5281 15.8695 25.3736 15.8911 25.2194 15.8816H23.6326V15.5621L23.8421 15.5395L23.9137 15.4347V12.6049L23.8421 12.5228L23.6326 12.5002V12.1807H26.1149ZM24.7184 15.4976C24.7868 15.5057 24.8556 15.5092 24.9244 15.508C25.0072 15.5174 25.091 15.5064 25.1686 15.476C25.2462 15.4455 25.3151 15.3966 25.3695 15.3334C25.4746 15.1841 25.5229 15.002 25.5057 14.8202C25.5221 14.612 25.4598 14.4052 25.3311 14.2406C25.284 14.1902 25.2261 14.151 25.1617 14.1263C25.0973 14.1015 25.0281 14.0916 24.9593 14.0975C24.8755 14.0969 24.7921 14.1081 24.7114 14.1306L24.7184 15.4976ZM28.5937 12.1807L29.6411 15.5167L29.8418 15.5621V15.8816H28.5325V15.5621L28.7647 15.5342L28.7997 15.4626L28.5623 14.6404H27.6056L27.3805 15.4574L27.4258 15.522L27.637 15.5621V15.8816H26.7049V15.5621L26.9213 15.5395L27.9513 12.1807H28.5937ZM27.7069 14.2755H28.4278L28.063 13.0536L27.7069 14.2755ZM31.7271 12.1807V12.5002L31.5333 12.5228L31.46 12.6049V13.7361H32.5825V12.6049L32.5109 12.5228L32.3153 12.5002V12.1807H33.6596V12.5002L33.4535 12.5228L33.3836 12.6049V15.4347L33.4535 15.5395L33.6596 15.5621V15.8816H32.3153V15.5621L32.5109 15.5395L32.5825 15.4347V14.1446H31.46V15.4347L31.5333 15.5395L31.7271 15.5621V15.8816H30.3847V15.5621L30.5837 15.5395L30.6605 15.4347V12.6049L30.5837 12.5228L30.3847 12.5002V12.1807H31.7271ZM35.6531 12.1807V12.5002L35.4243 12.5228L35.3475 12.6049V13.6523C35.5061 13.6316 35.6656 13.6205 35.8259 13.6192C35.9814 13.6043 36.1382 13.6244 36.2849 13.678C36.4315 13.7317 36.5646 13.8174 36.6739 13.9291C36.7832 14.0407 36.8661 14.1754 36.9167 14.3232C36.9669 14.4711 36.9839 14.6284 36.9655 14.7835C36.9835 15.0752 36.8864 15.3622 36.695 15.5831C36.5809 15.6872 36.4471 15.7673 36.3012 15.8186C36.1555 15.8698 36.0011 15.8913 35.8466 15.8816H34.2758V15.5621L34.4835 15.5395L34.5569 15.4347V12.6049L34.4835 12.5228L34.2758 12.5002V12.1807H35.6531ZM35.3475 15.4976C35.4032 15.4976 35.4748 15.508 35.5553 15.508C35.6378 15.5163 35.7213 15.5049 35.7987 15.4745C35.8761 15.4442 35.9454 15.3958 36.0004 15.3334C36.1015 15.1784 36.1487 14.9943 36.1348 14.8097C36.1491 14.594 36.0937 14.3793 35.9776 14.197C35.9301 14.1436 35.871 14.1019 35.8045 14.0753C35.7383 14.0486 35.6667 14.0377 35.5954 14.0433C35.5115 14.042 35.428 14.0532 35.3475 14.0765V15.4976ZM42.2062 15.5621L42.4191 15.5395L42.5064 15.4347V12.6049L42.4469 12.5228L42.2062 12.5002V12.1807H43.5853C44.0931 12.1807 44.3304 12.3064 44.4336 12.3797C44.7354 12.5822 44.842 12.9034 44.842 13.2997C44.8536 13.4665 44.8315 13.6339 44.7775 13.7922C44.7236 13.9504 44.6387 14.0963 44.5277 14.2214C44.3983 14.339 44.2469 14.4294 44.0819 14.4873C43.9169 14.5451 43.7421 14.5693 43.5676 14.5583C43.479 14.5581 43.3904 14.5523 43.3025 14.5409V15.4347L43.3687 15.5395L43.627 15.5621V15.8816H42.2062V15.5621ZM43.3059 14.1656H43.3425C43.4271 14.1722 43.5119 14.1619 43.592 14.1353C43.6725 14.1086 43.7465 14.066 43.8103 14.0102C43.9512 13.8217 44.0195 13.5886 44.0025 13.3538C44.0072 13.1659 43.9702 12.9792 43.8942 12.8074C43.8585 12.7304 43.8012 12.6655 43.7292 12.6205C43.6572 12.5756 43.5741 12.5525 43.4892 12.5543H43.3059V14.1656ZM45.3306 15.5621L45.5594 15.5395L45.631 15.4347V12.6049L45.5594 12.5228L45.3306 12.5002V12.1807H47.654V13.1007H47.3417L47.2701 12.6154L47.2073 12.556H46.4112V13.7728H46.8844L46.9506 13.6977L46.9961 13.2997H47.3156V14.6561H46.9961L46.9506 14.2598L46.8844 14.183H46.4112V15.5063H47.3451L47.4096 15.4172L47.4812 14.8115H47.7939V15.8816H45.3306V15.5621ZM51.3548 12.1807V12.5002L51.1504 12.5228L51.0775 12.6049V15.4399L51.1331 15.5063H51.3898V16.4716H51.0143L50.8975 15.9776L50.8347 15.8886H48.8497L48.7869 15.9776L48.6701 16.4716H48.2984V15.5063H48.4484C48.716 15.0527 48.9248 14.567 49.0697 14.0608C49.2031 13.5931 49.2951 13.1147 49.3457 12.6311L49.2741 12.549L48.9685 12.5054V12.1807H51.3548ZM50.278 15.4976V12.556H49.7752C49.7202 13.1404 49.6085 13.718 49.4418 14.2808C49.3094 14.705 49.1339 15.1145 48.918 15.5028L50.278 15.4976ZM53.3065 12.1807V12.5002L53.111 12.5228L53.0394 12.6049V14.6404L54.2351 12.7603V12.6049L54.1621 12.5228L53.9665 12.5002V12.1807H55.3106V12.5002L55.1045 12.5228L55.0329 12.6049V15.4347L55.1045 15.5395L55.3106 15.5621V15.8816H53.9665V15.5621L54.1621 15.5395L54.2351 15.4347V13.3555L53.0394 15.2374V15.4347L53.111 15.5395L53.3065 15.5621V15.8816H51.9625V15.5621L52.1631 15.5395L52.2382 15.4347V12.6049L52.1631 12.5228L51.9625 12.5002V12.1807H53.3065ZM58.4614 12.1807V13.1216H58.1592L58.0635 12.6206L57.983 12.556H57.5553V15.4347L57.6425 15.5395L57.8696 15.5621V15.8816H56.4434V15.5621L56.6702 15.5395L56.7578 15.4347V12.556H56.3212L56.2428 12.6206L56.1535 13.1216H55.85V12.1807H58.4614ZM19.6543 15.5395L19.5828 15.3963L18.8356 13.4778L19.5705 12.5228L19.7573 12.5002V12.1807H18.7536V12.5002L18.8443 12.5508L18.881 12.6503L17.8842 13.9124V12.6049L17.9558 12.5228L18.1426 12.5002V12.1807H16.7897V12.5002L17.0114 12.5228L17.0848 12.6049V15.4347L17.0114 15.5395L16.7897 15.5621V15.8816H18.1426V15.5621L17.9558 15.5395L17.8842 15.4347V14.712L18.2403 14.2511L18.888 15.8816H19.8411V15.5621L19.6543 15.5395ZM41.5375 15.5395L41.4641 15.3963L40.7189 13.4778L41.4536 12.5228L41.7136 12.5002V12.1807H40.6368V12.5002L40.7274 12.5508L40.7641 12.6503L39.7657 13.9124V12.6049L39.839 12.5228L40.0257 12.5002V12.1807H38.6728V12.5002L38.8945 12.5228L38.9679 12.6049V15.4347L38.8945 15.5395L38.6728 15.5621V15.8816H40.0257V15.5621L39.839 15.5395L39.7657 15.4347V14.712L40.1218 14.2511L40.7712 15.8816H41.7975V15.5621L41.5375 15.5395ZM16.7897 10.2238L17.0114 10.2115L17.0638 10.1487V8.42917L17.0114 8.37855L16.7897 8.36633V8.17081H17.9087V8.36633L17.7149 8.37855L17.6608 8.42917V9.13969H17.8109C17.8808 9.14373 17.9499 9.12336 18.0064 9.08208C18.0655 9.02657 18.1103 8.95772 18.1374 8.88133L18.2718 8.55836C18.3129 8.42415 18.3895 8.30356 18.4935 8.20924C18.5705 8.143 18.6695 8.1081 18.771 8.11146C18.8216 8.108 18.8723 8.11557 18.9196 8.13363C18.9669 8.15173 19.0097 8.17991 19.0451 8.2162C19.0963 8.27032 19.1239 8.3425 19.1219 8.41695C19.1255 8.49371 19.0996 8.56895 19.0497 8.62731C18.9997 8.6857 18.9294 8.72285 18.8531 8.7312L18.579 8.49728C18.5503 8.54216 18.5269 8.5902 18.5092 8.64041L18.4027 8.91273C18.3853 8.97853 18.3542 9.03988 18.3115 9.09281C18.2688 9.14577 18.2154 9.18909 18.1548 9.21999C18.2636 9.24019 18.3646 9.29036 18.4463 9.36489C18.5423 9.45295 18.619 9.55993 18.6715 9.6791L18.8775 10.133L18.9403 10.1854L19.1777 10.2046V10.4001H18.3049V10.2692L18.0361 9.66341C18.0106 9.59052 17.9709 9.52344 17.9191 9.46613C17.8959 9.44423 17.8685 9.42732 17.8384 9.41653C17.8084 9.4057 17.7765 9.40121 17.7446 9.40328H17.6538V10.1574L17.7079 10.2203L17.9017 10.2325V10.428H16.7897V10.2238ZM21.2567 8.36107C21.3927 8.46971 21.5032 8.6067 21.5806 8.76254C21.6581 8.91833 21.7005 9.08917 21.705 9.26314C21.7095 9.43707 21.6759 9.60987 21.6067 9.76948C21.5374 9.92908 21.434 10.0716 21.3039 10.1871C21.0612 10.3773 20.7603 10.4779 20.452 10.4716C20.1645 10.4783 19.8833 10.3872 19.6542 10.2133C19.5185 10.0999 19.4104 9.95695 19.3384 9.79538C19.2664 9.63378 19.2323 9.45784 19.2388 9.28106C19.2325 9.10734 19.2668 8.93453 19.3389 8.77635C19.411 8.61818 19.519 8.47898 19.6542 8.36979C19.8967 8.19688 20.1893 8.10854 20.4869 8.11842C20.7624 8.11235 21.0325 8.19566 21.2567 8.35584V8.36107ZM20.1012 8.57231C19.9635 8.79126 19.8965 9.04721 19.9091 9.30551C19.894 9.56177 19.9639 9.81585 20.1081 10.0282C20.1501 10.0878 20.2059 10.1366 20.2705 10.1702C20.3352 10.2039 20.407 10.2217 20.48 10.222C20.549 10.2225 20.6173 10.2071 20.6794 10.1768C20.7415 10.1465 20.7957 10.1022 20.8378 10.0474C20.9818 9.82061 21.052 9.55467 21.0386 9.28633C21.0557 9.04093 20.9946 8.79645 20.864 8.58803C20.8206 8.52376 20.7621 8.4712 20.6936 8.43498C20.6251 8.39872 20.5487 8.37995 20.4712 8.38029C20.3986 8.38008 20.327 8.39746 20.2626 8.43091C20.1982 8.46435 20.1428 8.51286 20.1012 8.57231ZM21.9149 10.2255L22.1505 10.2116L22.1907 10.1487V8.42921L22.1505 8.37859L21.9149 8.36637V8.17084H22.9972V8.26859L23.4615 9.67214L23.9189 8.26509V8.17084H25.0047V8.36637L24.755 8.37859L24.7132 8.42921V10.1487L24.755 10.2116L25.0047 10.2255V10.4193H23.9189V10.2255L24.1283 10.2116L24.158 10.1487V8.41872H24.1511L23.4947 10.4193H23.156L22.4979 8.41872H22.4927V10.1487L22.5328 10.2116L22.7528 10.2255V10.4193H21.9149V10.2255ZM25.1757 10.2255L25.4114 10.2116L25.4497 10.1487V8.42921L25.4114 8.37859L25.1757 8.36637V8.17084H26.258V8.26859L26.7206 9.67214L27.1797 8.26509V8.17084H28.2654V8.36637L28.0141 8.37859L27.9739 8.42921V10.1487L28.0141 10.2116L28.2654 10.2255V10.4193H27.1797V10.2255L27.3874 10.2116L27.4171 10.1487V8.41872H27.4119L26.7538 10.4193H26.4169L25.7588 8.41872H25.7518V10.1487L25.7936 10.2116L26.0136 10.2255V10.4193H25.1757V10.2255ZM28.4522 10.2255L28.6757 10.2116L28.7298 10.1487V8.42921L28.6757 8.37859L28.4522 8.36637V8.17084H30.2956V8.72947H30.0076L29.9535 8.43617L29.9063 8.39954H29.3146V9.13969H29.6655L29.7161 9.09257L29.7492 8.84992H29.9884V9.67564H29.7492L29.7161 9.43299L29.6655 9.3876H29.3146V10.1924H30.0111L30.0582 10.1382L30.1106 9.76992H30.3986V10.4193H28.4522V10.2255ZM30.6081 10.2238L30.8211 10.2115L30.8856 10.1487V8.42917L30.842 8.37855L30.6081 8.36633V8.17081H31.6921C31.9102 8.15516 32.1286 8.19668 32.3258 8.29127C32.4255 8.34457 32.5075 8.42581 32.5618 8.52505C32.616 8.62429 32.6402 8.73717 32.6312 8.84992C32.6367 8.95503 32.6184 9.06004 32.5776 9.15708C32.5368 9.25414 32.4746 9.34068 32.3956 9.41028C32.1869 9.55854 31.9336 9.63065 31.6781 9.61453C31.6122 9.61456 31.5464 9.61106 31.4809 9.60407V10.1487L31.5315 10.2115L31.7794 10.2238V10.4193H30.6081V10.2238ZM31.4809 9.37711H31.5088C31.6326 9.38723 31.7561 9.35389 31.858 9.28283C31.909 9.23065 31.9484 9.16811 31.9733 9.09946C31.9983 9.03085 32.0084 8.95765 32.0028 8.88482C32.0064 8.76905 31.9786 8.65447 31.9225 8.55313C31.8904 8.50302 31.8455 8.46234 31.7924 8.43535C31.7393 8.40836 31.68 8.39597 31.6205 8.3995H31.4826L31.4809 9.37711ZM33.773 8.17084V8.36637L33.5985 8.37859L33.5442 8.42921V8.87783C33.5326 8.98243 33.5571 9.08785 33.6141 9.17636C33.6484 9.21309 33.6905 9.24144 33.7373 9.2593C33.7842 9.27716 33.8348 9.28402 33.8847 9.27937C34.0157 9.27621 34.1451 9.25024 34.2669 9.20254V8.42921L34.2113 8.37859L34.0364 8.36637V8.17084H35.1347V8.36637L34.9269 8.37859L34.8726 8.42921V10.1487L34.9269 10.2116L35.1347 10.2238V10.4193H33.9774V10.2238L34.2269 10.2116L34.2758 10.1487V9.45044C34.0914 9.49791 33.9023 9.52367 33.7119 9.52724C33.6029 9.53749 33.4929 9.52507 33.389 9.49084C33.2851 9.45659 33.1894 9.40125 33.1079 9.32825C33.0081 9.19734 32.9635 9.03248 32.9839 8.86911V8.42921L32.9264 8.37859L32.7431 8.36637V8.17084H33.773ZM35.3092 10.2255L35.5326 10.2116L35.5848 10.1487V8.42921L35.5326 8.37859L35.3092 8.36637V8.17084H37.1509V8.72947H36.861L36.8087 8.43617L36.7615 8.39954H36.1681V9.13969H36.5205L36.5711 9.09257L36.6043 8.84992H36.8416V9.67564H36.6043L36.5711 9.43299L36.5205 9.3876H36.1681V10.1924H36.8661L36.9116 10.1382L36.9659 9.76992H37.2555V10.4193H35.3092V10.2255ZM39.5073 10.339C39.2758 10.4213 39.032 10.4644 38.7862 10.4664C38.6189 10.4778 38.4505 10.4555 38.2916 10.401C38.1327 10.3464 37.9864 10.2606 37.8611 10.1487C37.7314 10.0259 37.632 9.87483 37.5698 9.70728C37.508 9.53973 37.4856 9.3602 37.5043 9.18257C37.5233 9.00498 37.5827 8.83407 37.6781 8.68312C37.7735 8.53218 37.9025 8.40524 38.055 8.31218C38.2814 8.17906 38.5415 8.11476 38.8039 8.12715C39.0429 8.12912 39.2795 8.17468 39.5019 8.26156V8.86907H39.1929L39.1128 8.45535L39.0551 8.40296C38.9981 8.38789 38.9393 8.38083 38.8806 8.38202C38.7917 8.37957 38.7034 8.39499 38.6206 8.42737C38.5377 8.45976 38.4624 8.50845 38.3989 8.57054C38.3113 8.66778 38.2441 8.78145 38.2009 8.90492C38.1578 9.0284 38.1395 9.15921 38.1473 9.28979C38.1371 9.52571 38.2037 9.75861 38.3378 9.95315C38.4026 10.0348 38.4851 10.1006 38.5791 10.1453C38.6732 10.1901 38.7764 10.2128 38.8806 10.2115C38.9417 10.2115 39.0184 10.2011 39.0551 10.1976L39.1074 10.1487L39.1929 9.71227H39.5019L39.5073 10.339ZM39.7446 10.2238L39.9646 10.2115L40.0189 10.1487V8.42917L39.9646 8.37855L39.7446 8.36633V8.17081H40.8636V8.36633L40.668 8.37855L40.614 8.42917V9.13969H40.7658C40.8354 9.1436 40.9036 9.12323 40.9596 9.08208C41.0194 9.02701 41.0642 8.95806 41.0907 8.88133L41.2251 8.55836C41.2669 8.42449 41.3433 8.30403 41.4468 8.20924C41.5239 8.14328 41.6227 8.10844 41.7242 8.11146C41.7748 8.108 41.8253 8.11557 41.8729 8.13363C41.9201 8.15173 41.9628 8.17991 41.9985 8.2162C42.0243 8.24262 42.0447 8.27402 42.0582 8.30855C42.0718 8.34304 42.0779 8.37995 42.0769 8.41695C42.08 8.49361 42.0542 8.56861 42.0043 8.6269C41.9543 8.6852 41.8844 8.72244 41.808 8.7312L41.5341 8.49728C41.5032 8.54097 41.4797 8.58932 41.4641 8.64041L41.3558 8.91273C41.2808 9.0978 41.2092 9.17809 41.108 9.21999C41.217 9.23981 41.3181 9.29006 41.3996 9.36489C41.4957 9.45245 41.5717 9.55959 41.623 9.6791L41.8325 10.133L41.8953 10.1854L42.1309 10.2046V10.4001H41.2581V10.2692L40.9841 9.66341C40.9579 9.59083 40.9182 9.52391 40.8673 9.46613C40.8439 9.44447 40.8164 9.42776 40.7862 9.41697C40.7563 9.40617 40.7244 9.40152 40.6925 9.40328H40.6018V10.1574L40.6558 10.2203L40.8513 10.2325V10.428H39.7446V10.2238ZM43.3286 8.17084V8.36637L43.1276 8.37859L43.0736 8.42921V9.66515L43.9658 8.52172V8.42921L43.9115 8.37859L43.7109 8.36637V8.17084H44.8227V8.36637L44.6149 8.37859L44.5626 8.42921V10.1487L44.6149 10.2116L44.8227 10.2255V10.4193H43.7109V10.2255L43.9115 10.2116L43.9658 10.1487V8.88482L43.0736 10.0283V10.1487L43.1276 10.2116L43.3286 10.2255V10.4193H42.2164V10.2255L42.4208 10.2116L42.4768 10.1487V8.42921L42.4208 8.37859L42.2164 8.36637V8.17084H43.3286ZM46.1233 8.17081V8.36633L45.9226 8.37855L45.8683 8.42917V9.66338L46.7605 8.51996V8.42744L46.7062 8.37679L46.5056 8.3646V8.17081H47.6174V8.36633L47.41 8.37855L47.3556 8.42917V10.1487L47.41 10.2115L47.6174 10.2238V10.4193H46.5056V10.2238L46.7062 10.2115L46.7605 10.1487V8.88479L45.8683 10.0282V10.1487L45.9226 10.2115L46.1233 10.2238V10.4193H45.0115V10.2238L45.2155 10.2115L45.2715 10.1487V8.42917L45.2155 8.37855L45.0115 8.36633V8.17081H46.1233ZM46.0394 7.78499C46.2211 7.81993 46.4078 7.81993 46.5894 7.78499V7.49696C46.6542 7.44121 46.7378 7.41245 46.8233 7.41666C47.0239 7.41666 47.1044 7.53362 47.1044 7.64536C47.1031 7.70402 47.0851 7.76109 47.0518 7.80951C47.0185 7.85789 46.972 7.8955 46.9177 7.91767C46.5259 8.04801 46.1029 8.04801 45.7111 7.91767C45.6572 7.89571 45.6103 7.85843 45.5767 7.81039C45.5434 7.76235 45.5248 7.70562 45.5227 7.64709C45.5227 7.53536 45.6049 7.4184 45.8055 7.4184C45.8911 7.41456 45.9746 7.44325 46.0394 7.49872V7.78499ZM50.4925 8.17084V8.84466H50.1768L50.1242 8.43793L50.0702 8.39954H49.4469V9.11875C49.543 9.11002 49.6808 9.09956 49.782 9.09956C49.9979 9.08693 50.2124 9.13922 50.3985 9.24969C50.4833 9.30659 50.5519 9.38505 50.5964 9.47709C50.6412 9.5691 50.6609 9.67136 50.6531 9.77338C50.6572 9.8624 50.6409 9.95115 50.6059 10.033C50.5709 10.1149 50.5176 10.1879 50.4508 10.2465C50.2664 10.3754 50.043 10.437 49.8186 10.4211H48.5846V10.2238L48.7957 10.2116L48.8501 10.1487V8.42921L48.7957 8.37859L48.5846 8.36637V8.17084H50.4925ZM49.4452 10.1889C49.4965 10.192 49.5477 10.192 49.599 10.1889C49.6587 10.1946 49.7195 10.1876 49.7765 10.1683C49.8336 10.1491 49.8862 10.118 49.9307 10.0771C49.968 10.0349 49.9962 9.9853 50.0135 9.93149C50.0305 9.87764 50.0362 9.82081 50.0301 9.76466C50.0362 9.70096 50.0281 9.63666 50.0067 9.57636C49.9853 9.51603 49.951 9.46114 49.9062 9.41554C49.8292 9.35107 49.73 9.3197 49.6302 9.32825C49.5681 9.32774 49.506 9.3342 49.4452 9.34744V10.1889ZM52.1842 8.15336L52.9626 10.1976L53.1653 10.2238V10.4193H52.0793V10.2238L52.3081 10.2081L52.3359 10.1644L52.1614 9.66515H51.4404L51.2659 10.1609L51.2991 10.2011L51.5137 10.2238V10.4193H50.7057V10.2238L50.9237 10.2115L51.6902 8.15336H52.1842ZM51.5242 9.44168H52.0603L51.7897 8.69976L51.5242 9.44168ZM54.3243 8.17084V8.36637L54.1234 8.37859L54.0694 8.42921V9.11525H54.9072V8.42921L54.855 8.37859L54.6523 8.36637V8.17084H55.7645V8.36637L55.5584 8.37859L55.5044 8.42921V10.1487L55.5584 10.2116L55.7645 10.2255V10.4193H54.6523V10.2255L54.855 10.2116L54.9072 10.1487V9.36489H54.0694V10.1487L54.1234 10.2116L54.3243 10.2255V10.4193H53.2122V10.2255L53.4165 10.2116L53.4722 10.1487V8.42921L53.4165 8.37859L53.2122 8.36637V8.17084H54.3243ZM55.9529 10.2238L56.1729 10.2115L56.2289 10.1487V8.42917L56.1729 8.37855L55.9529 8.36633V8.17081H57.0718V8.36633L56.878 8.37855L56.824 8.42917V9.13969H56.9741C57.044 9.14373 57.1132 9.12336 57.1696 9.08208C57.2287 9.02691 57.2731 8.95792 57.2989 8.88133L57.433 8.55836C57.4751 8.42449 57.5515 8.30403 57.6547 8.20924C57.7321 8.14358 57.8309 8.10878 57.9324 8.11146C57.9834 8.10773 58.0343 8.11516 58.0818 8.13326C58.1297 8.15136 58.1728 8.17967 58.2081 8.2162C58.2594 8.27032 58.2872 8.34253 58.2852 8.41695C58.2886 8.49371 58.2628 8.56895 58.2129 8.62731C58.1629 8.6857 58.0927 8.72285 58.0163 8.7312L57.7423 8.49728C57.7128 8.54179 57.6894 8.5899 57.6724 8.64041L57.5641 8.91277C57.4908 9.0978 57.4174 9.17809 57.3163 9.21999C57.4252 9.23954 57.5264 9.28982 57.6079 9.36489C57.7043 9.45248 57.781 9.55959 57.833 9.67913L58.0407 10.133L58.1052 10.1854L58.3391 10.2046V10.4001H57.4663V10.2692L57.2012 9.66341C57.1764 9.59022 57.1363 9.52299 57.084 9.46613C57.061 9.44423 57.0335 9.42732 57.0033 9.41653C56.9734 9.4057 56.9415 9.40121 56.9096 9.40328H56.8189V10.1574L56.8729 10.2203L57.0667 10.2325V10.428H55.9478L55.9529 10.2238Z" fill="#335497"/>
<path d="M11.566 12.1272C11.8366 12.1272 12.0513 12.534 12.0513 13.0402C12.0513 13.5465 11.8366 13.9497 11.566 13.9497C11.2955 13.9497 11.0773 13.536 11.0773 13.035C11.0773 12.534 11.2902 12.1255 11.566 12.1272Z" fill="#B4966A"/>
<path d="M11.4645 12.1176C11.7333 12.1176 11.9498 12.5244 11.9498 13.0306C11.9498 13.5369 11.7333 13.9401 11.4645 13.9401C11.1957 13.9401 10.9757 13.5264 10.9757 13.0254C10.9757 12.5244 11.1939 12.1071 11.4645 12.1176Z" fill="url(#paint0_linear_1763_194237)"/>
<defs>
<linearGradient id="paint0_linear_1763_194237" x1="10.6563" y1="11.8732" x2="12.2746" y2="14.1845" gradientUnits="userSpaceOnUse">
<stop stop-color="#B4966A"/>
<stop offset="0.5" stop-color="#FEF0C7"/>
<stop offset="1" stop-color="#B4966A"/>
</linearGradient>
</defs>
</svg>
