<svg width="66" height="24" viewBox="0 0 66 24" fill="none" xmlns="http://www.w3.org/2000/svg">
<path d="M13.8013 14.0937L13.5382 11.9817L13.106 14.0937H12.5066L12.0275 11.9817L11.74 14.0937H10.6859L11.2966 9.89408H12.3864L12.7828 11.7477L13.2019 9.89314H14.2569L14.8554 14.0937H13.8013ZM17.4325 9.89408V10.9491H16.3661V11.4903H17.1206V12.5463H16.3661V13.0499H17.4325V14.0937H15.3101V9.89408H17.4325ZM18.0074 9.89408H20.3327V11.0347H19.6976V14.0927H18.6303V11.0356H18.0074V9.89314V9.89408ZM20.7273 14.0937L21.7701 9.89408H23.0047L24.0475 14.0937H23.0047L22.8365 13.4924H21.9383L21.7824 14.0937H20.7273ZM22.6448 12.6562L22.394 11.5889L22.1187 12.6581H22.6457L22.6448 12.6562ZM26.6236 9.89408L27.4626 14.0937H26.3963L25.9406 10.9623H25.856L25.3891 14.0937H24.335L25.1495 9.89408H26.6236ZM30.0387 9.89408L30.8899 14.0937H29.8236L29.3679 10.9623H29.2834L28.8164 14.0937H27.7623L28.5891 9.89408H30.0387ZM34.4487 9.89408V14.0937H33.3825V12.1658L32.3997 14.0937H31.3456V9.89408H32.3997V11.9196L33.4538 9.89314H34.4487V9.89408ZM36.2705 9.89408V11.4903H37.0736V9.89314H38.1279V14.0937H37.0736V12.5472H36.2705V14.0946H35.2162V9.89502H36.2705V9.89408ZM40.4767 9.89408C40.6061 9.89049 40.735 9.91613 40.8532 9.96917C40.9714 10.0222 41.0762 10.1012 41.1597 10.2004C41.3267 10.4089 41.4115 10.6795 41.4115 10.9989C41.4115 11.2564 41.3758 11.4527 41.3033 11.6002C41.231 11.7355 41.1362 11.8342 41.0158 11.8708C41.201 11.9199 41.3624 12.0331 41.4715 12.1902C41.6032 12.3744 41.6623 12.6083 41.6623 12.878C41.6623 13.2594 41.5788 13.5657 41.3993 13.7752C41.2076 13.996 40.9558 14.0946 40.6202 14.0946H38.8588V9.89221H40.4767V9.89408ZM39.925 10.8017V11.4039H40.1054C40.2605 11.4039 40.345 11.3062 40.345 11.1098C40.345 10.9003 40.2605 10.8017 40.1054 10.8017H39.925ZM39.925 12.3988V13.0132H40.2005C40.3694 13.0132 40.4645 12.9146 40.4645 12.706C40.4645 12.6083 40.441 12.5341 40.3928 12.4852C40.3425 12.4323 40.2734 12.4013 40.2005 12.3988H39.925ZM44.3351 9.89314V10.9501H43.2689V11.4912H44.3229V12.5472H43.2698V13.0508H44.336V14.0946H42.2146V9.89502H44.336L44.3351 9.89314ZM46.7564 11.2451C46.671 11.2419 46.5866 11.2591 46.5093 11.2953C46.4324 11.3314 46.3648 11.3853 46.3129 11.4527C46.216 11.588 46.169 11.7722 46.169 11.9939C46.169 12.2024 46.216 12.3866 46.3242 12.5341C46.3727 12.6024 46.4377 12.6574 46.5134 12.6939C46.5891 12.7303 46.6726 12.7471 46.7564 12.7427C46.8756 12.7427 46.96 12.7427 47.0194 12.7182C47.0907 12.706 47.1508 12.6807 47.1986 12.6572V14.0946C47.1752 14.1068 47.1151 14.119 47.0551 14.1312C46.996 14.1435 46.8878 14.1435 46.7564 14.1435C46.2047 14.1435 45.7603 13.9349 45.426 13.4802C45.1263 13.0743 44.9825 12.583 44.9825 11.9939C44.9825 11.4161 45.1263 10.9247 45.426 10.5189C45.749 10.0773 46.1925 9.85652 46.7564 9.85652C46.8521 9.85652 46.9347 9.85652 47.0072 9.86872C47.0795 9.89314 47.1386 9.90631 47.1986 9.91757V11.3428C47.1517 11.3184 47.0907 11.294 47.0551 11.2808C46.9575 11.2561 46.8571 11.2441 46.7564 11.2451ZM47.7625 9.89314H50.0991V11.0356H49.4639V14.0937H48.3977V11.0356H47.7625V9.89314ZM51.8126 11.4527H52.46C52.7597 11.4527 53.0114 11.5636 53.2022 11.7853C53.4183 12.0183 53.515 12.3255 53.515 12.7305C53.515 13.1363 53.4183 13.468 53.2144 13.7263C53.1256 13.8416 53.0111 13.9347 52.8804 13.9984C52.7493 14.0621 52.6055 14.0947 52.46 14.0937H50.7462V9.89408H53.2031V10.7772H51.8126V11.4537V11.4527ZM51.8126 12.473V13.0743H52.0766C52.2561 13.0743 52.3396 12.9766 52.3396 12.7681C52.3396 12.6694 52.3162 12.5952 52.2683 12.5463C52.2433 12.5212 52.2133 12.5016 52.1804 12.489C52.1473 12.4764 52.112 12.4709 52.0766 12.473H51.8126ZM53.8505 14.0937L54.8933 9.89408H56.1145L57.1576 14.0937H56.1145L55.9597 13.4924H55.0484L54.8923 14.0937H53.8496H53.8505ZM55.7558 12.6328L55.5041 11.6134L55.2279 12.6328H55.7558ZM58.7632 9.89314V11.4903H59.5542V9.89314H60.6091V14.0937H59.5542V12.5472H58.7632V14.0946H57.6968V9.89502H58.7632V9.89314ZM62.4177 9.89314V11.4161L63.1496 9.89408H64.2395L63.3047 11.8464L64.2752 14.0937H63.1852L62.4187 12.2879V14.0937H61.3638V9.89408H62.4187L62.4177 9.89314ZM5.2358 8.63892C7.02086 8.70469 8.44704 10.1741 8.4583 11.9751C8.46234 12.8667 8.11293 13.7236 7.48661 14.3582C6.8603 14.9927 6.00808 15.3534 5.11649 15.3611C4.22424 15.3666 3.3662 15.0181 2.73044 14.392C2.09468 13.7659 1.73308 12.9134 1.72489 12.0211C1.72092 11.1534 2.05173 10.3175 2.64847 9.68754C3.24521 9.05757 4.06191 8.68195 4.92859 8.63892L4.93234 9.5944C4.31734 9.63503 3.74098 9.90872 3.32079 10.3596C2.90059 10.8106 2.66819 11.4048 2.67097 12.0211C2.67367 12.3806 2.75674 12.7348 2.9141 13.058C3.07146 13.3812 3.29912 13.6651 3.58041 13.8889L4.49361 11.4837L3.85944 11.4884C3.85944 11.4884 3.73449 11.4631 3.66308 11.5223L3.51276 11.6669C3.51276 11.6669 3.50055 11.2705 3.5184 11.2291C3.53625 11.1784 3.58699 10.781 3.76361 10.578C3.94212 10.3826 4.22679 10.3554 4.22679 10.3554L6.25612 10.3413L5.96298 10.6466L6.66761 13.8297C6.93248 13.6019 7.14462 13.3192 7.28933 13.0012C7.43404 12.6832 7.50785 12.3376 7.50566 11.9882C7.50003 11.3746 7.2615 10.786 6.83834 10.3416C6.41522 9.89718 5.83904 9.63009 5.22642 9.5944L5.2358 8.63892ZM4.46072 10.6222C4.52179 10.6222 4.57346 10.6692 4.57346 10.7274C4.57346 10.7847 4.52367 10.8326 4.4626 10.8326C4.4006 10.8336 4.34986 10.7866 4.34986 10.7293C4.34986 10.6701 4.39872 10.6231 4.46072 10.6222Z" fill="#004785"/>
</svg>
