<svg width="66" height="24" viewBox="0 0 66 24" fill="none" xmlns="http://www.w3.org/2000/svg">
<path d="M46.0814 6.5H46.4652C46.5549 6.55495 46.6416 6.61858 46.7393 6.66125C46.8455 6.63088 46.9301 6.55423 47.0248 6.5H47.3986C47.2794 6.73572 47.1021 6.9888 46.8059 6.98229C46.4667 7.03725 46.2121 6.78272 46.0814 6.5ZM10.874 7.09654H12.1213V16.2246C12.9355 16.2261 13.7497 16.2254 14.5639 16.2254C15.394 13.7365 16.2233 11.2484 17.052 8.76034C17.903 8.7589 18.7541 8.75961 19.6052 8.75961C19.6059 11.1154 19.6052 13.4712 19.6059 15.8277C18.5603 15.8277 17.5147 15.8284 16.4699 15.827C16.6073 15.4112 16.7461 14.9954 16.8849 14.5797C17.3701 14.5811 17.8546 14.5804 18.3398 14.5804V10.025C18.2197 10.025 18.0997 10.0257 17.9804 10.0257C17.1518 12.5146 16.3209 15.0019 15.493 17.4907H10.874V7.09654Z" fill="#93130A"/>
<path d="M12.5213 7.09512C12.9421 7.09728 13.363 7.09656 13.7838 7.09656C13.7853 9.15516 13.7838 11.2145 13.7845 13.2738C14.4779 11.2181 15.1605 9.15876 15.8445 7.10018C17.6522 7.0915 19.4607 7.09873 21.2683 7.09656V17.4908H15.9147C16.055 17.0692 16.196 16.6477 16.3362 16.2261C17.5583 16.2239 18.7802 16.2261 20.003 16.2254V8.36195C18.9299 8.36122 17.8569 8.3634 16.7838 8.36122C15.9537 10.8508 15.1143 13.3374 14.287 15.8277C13.6978 15.827 13.1084 15.8277 12.5191 15.8277C12.5206 12.9166 12.517 10.0062 12.5213 7.09512ZM23.3291 7.09656C23.5439 7.09656 23.7579 7.09656 23.9734 7.09512C24.1975 7.71912 24.4029 8.3511 24.6321 8.97367C24.8476 8.34747 25.0652 7.72204 25.28 7.09584C25.4976 7.09656 25.7145 7.09656 25.9322 7.09656V9.60925H25.4441C25.4419 9.01633 25.4477 8.42414 25.4412 7.83119C25.2229 8.41907 25.0457 9.02066 24.8302 9.60998C24.6935 9.60925 24.5569 9.60854 24.4202 9.6078C24.2286 9.01054 24.0117 8.42196 23.8251 7.82326C23.8085 8.41833 23.8208 9.01417 23.8172 9.60925C23.6545 9.60925 23.4911 9.60925 23.3284 9.60854C23.3291 8.7712 23.3291 7.93389 23.3291 7.09656ZM27.2316 7.0915C27.7131 6.97943 28.2641 7.12259 28.5801 7.51595C29.0559 8.05464 28.9691 8.98668 28.3798 9.40896C27.7486 9.90211 26.6929 9.68374 26.3631 8.93679C25.9994 8.22457 26.4391 7.25203 27.2316 7.0915ZM27.3205 7.55716C26.9937 7.6461 26.7384 7.95631 26.7268 8.29687C26.6726 8.7517 27.0587 9.1877 27.5136 9.20723C28.0537 9.25204 28.5338 8.6924 28.3834 8.16601C28.2923 7.70251 27.7652 7.41327 27.3205 7.55716ZM29.0747 8.30626C29.0877 7.73071 29.5259 7.17538 30.1029 7.08065C30.6987 6.94255 31.3408 7.26721 31.5722 7.83627C31.3921 7.83771 31.2128 7.83771 31.0335 7.83627C30.7529 7.49714 30.2113 7.40748 29.87 7.70684C29.4767 8.00041 29.4463 8.6367 29.8115 8.96499C30.1296 9.30122 30.6987 9.27376 30.998 8.92523C31.1839 8.9216 31.3704 8.92233 31.557 8.92593C31.4181 9.15442 31.262 9.38943 31.0161 9.51452C30.5295 9.78422 29.8643 9.7112 29.4666 9.31497C29.207 9.05031 29.0551 8.67865 29.0747 8.30626ZM32.959 7.24985C33.0899 6.98738 33.4189 7.12838 33.651 7.10018C33.3395 7.51667 33.0141 7.92303 32.7067 8.34242C33.0247 8.76037 33.338 9.18263 33.646 9.6078C33.4537 9.60925 33.2604 9.60925 33.0681 9.60998C32.8159 9.25712 32.5671 8.90136 32.3133 8.54994V9.60925H31.8253V7.09656H32.3133C32.3133 7.44508 32.3111 7.79361 32.3162 8.14214C32.5375 7.85001 32.7421 7.54559 32.959 7.24985Z" fill="#93130A"/>
<path d="M34.4744 7.11897C34.9523 6.96929 35.524 7.08065 35.8683 7.45882C36.3232 7.91724 36.3486 8.72204 35.9282 9.21011C35.5004 9.73577 34.6587 9.82256 34.1147 9.42993C33.6342 9.0973 33.4459 8.42195 33.6672 7.8847C33.8017 7.52389 34.1068 7.23394 34.4744 7.11897ZM34.6941 7.54848C34.3499 7.62585 34.0758 7.94978 34.0643 8.30409C34.0215 8.71481 34.3339 9.11901 34.7381 9.18984C35.2305 9.30555 35.7482 8.88905 35.7482 8.38363C35.783 7.84422 35.2119 7.39591 34.6941 7.54848ZM36.543 7.09655C36.9472 7.1139 37.3888 7.02713 37.7576 7.23538C38.1063 7.44579 38.1078 7.98014 37.8089 8.23612C38.2827 8.45953 38.3051 9.22094 37.8467 9.46969C37.4469 9.6837 36.9767 9.58971 36.543 9.6085C36.543 8.77119 36.5421 7.93388 36.543 7.09655ZM37.0136 7.55787C37.013 7.72633 37.013 7.89482 37.0136 8.06404C37.1431 8.05318 37.2761 8.06256 37.4021 8.02424C37.5431 7.98303 37.5617 7.80443 37.5219 7.68512C37.4006 7.52967 37.1835 7.57884 37.0136 7.55787ZM37.013 8.51957C37.013 8.72708 37.013 8.93533 37.0136 9.14359C37.2162 9.12332 37.4685 9.19347 37.6269 9.02717C37.7635 8.89123 37.6962 8.6338 37.5219 8.56583C37.3593 8.50509 37.182 8.52969 37.013 8.51957ZM38.4346 7.95267C38.5647 7.52968 38.9226 7.17609 39.3622 7.08715C39.7129 7.01846 40.1041 7.05461 40.4027 7.26503C40.6139 7.40169 40.7499 7.61789 40.8706 7.83263C40.6877 7.837 40.5048 7.83844 40.3224 7.83626C40.1454 7.65549 39.9189 7.49352 39.6507 7.52606C39.1539 7.52461 38.7556 8.04162 38.8662 8.52391C38.9456 8.94041 39.3681 9.26578 39.7938 9.2007C39.9935 9.18046 40.1401 9.03511 40.303 8.93604C40.4844 8.90713 40.6697 8.92377 40.8526 8.92737C40.7136 9.16093 40.5481 9.39376 40.3009 9.52174C39.9407 9.71553 39.4902 9.7235 39.1179 9.56006C38.532 9.29688 38.2199 8.55716 38.4346 7.95267ZM41.1352 7.09583C41.2913 7.09655 41.4476 7.09655 41.6046 7.09655C41.6046 7.45013 41.6037 7.80301 41.6052 8.15658C41.8598 7.8059 42.1114 7.45303 42.3616 7.098C42.5575 7.09655 42.7542 7.09655 42.9507 7.09655C42.6362 7.50943 42.3226 7.92231 42.0037 8.33156C42.3138 8.76033 42.6356 9.18117 42.9466 9.60924C42.7492 9.60924 42.553 9.6085 42.3566 9.60561C42.1105 9.24843 41.8562 8.89846 41.606 8.54488C41.6031 8.89917 41.6046 9.25422 41.6046 9.60924H41.1346C41.1346 8.77119 41.1337 7.93388 41.1352 7.09583ZM43.2133 7.09655C43.3752 7.09655 43.5381 7.09655 43.7015 7.09583C43.7021 7.66995 43.7001 8.24409 43.7021 8.81818C44.0679 8.24409 44.4287 7.66706 44.7984 7.09511C44.9565 7.09583 45.1149 7.09655 45.274 7.09727C45.274 7.93459 45.274 8.77193 45.2748 9.60924H44.786C44.7854 9.04018 44.7875 8.47039 44.7845 7.90134C44.4223 8.46968 44.0629 9.04089 43.7006 9.60924C43.5372 9.60924 43.3752 9.60924 43.2127 9.60853C43.2133 8.77119 43.2133 7.93388 43.2133 7.09655ZM45.7079 7.09655C45.8699 7.09655 46.0319 7.09583 46.1947 7.09511C46.1974 7.6714 46.1959 8.24698 46.1953 8.82252C46.559 8.24842 46.9263 7.67646 47.2857 7.10017C47.4462 7.09728 47.6066 7.09655 47.768 7.09511C47.7686 7.93314 47.7686 8.77119 47.7686 9.60924H47.2986C47.2966 9.03585 47.3022 8.46172 47.2957 7.88833C46.9234 8.45449 46.5632 9.02933 46.2053 9.6049C46.0392 9.60779 45.8734 9.60924 45.7079 9.61068V7.09655ZM53.4515 10.4299C53.5816 10.4263 53.7132 10.4234 53.8447 10.4234C53.9415 10.6288 54.2324 10.6447 54.3256 10.4256C54.4622 10.4249 54.6003 10.4263 54.7383 10.4299C54.6466 10.7654 54.3088 10.9845 53.9648 10.9064C53.7002 10.8891 53.5273 10.6635 53.4515 10.4299ZM32.7736 11.4798C33.1843 10.9209 34.0693 10.824 34.6045 11.2564C34.7744 11.3866 34.8821 11.5753 34.9877 11.7582C34.8098 11.7582 34.6298 11.7763 34.454 11.7459C34.2861 11.6447 34.1395 11.4921 33.9363 11.4654C33.4569 11.3764 32.963 11.798 32.9789 12.2868C32.9543 12.7597 33.4011 13.187 33.8734 13.1364C34.0997 13.1393 34.2782 12.9875 34.4375 12.8457C34.6174 12.8443 34.7983 12.845 34.9788 12.8486C34.8691 13.0337 34.7585 13.2275 34.5806 13.3562C34.0658 13.7503 33.245 13.683 32.8235 13.1812C32.4135 12.717 32.3788 11.9643 32.7736 11.4798ZM23.3287 11.0373H23.8168C23.8183 11.6064 23.8139 12.1755 23.819 12.7438C24.1827 12.1762 24.5428 11.6064 24.9043 11.0373C25.0656 11.0373 25.2275 11.0373 25.3895 11.0381C25.3866 11.8761 25.3953 12.7149 25.3852 13.5536C25.2239 13.5507 25.0627 13.55 24.9014 13.5486C24.9007 12.978 24.9022 12.4075 24.9014 11.837C24.5312 12.4039 24.1747 12.9795 23.8089 13.5493C23.6498 13.55 23.4907 13.5507 23.3316 13.5522C23.3244 12.7141 23.3309 11.8761 23.3287 11.0373ZM25.8233 11.038C25.9853 11.0373 26.148 11.0373 26.31 11.0366C26.3122 11.3685 26.3114 11.6997 26.3114 12.0315C26.6057 12.0315 26.9007 12.0308 27.195 12.033C27.1979 11.7011 27.1972 11.3692 27.1972 11.0373H27.6853V13.55H27.1972C27.1972 13.2007 27.1972 12.8515 27.1979 12.5023C26.9022 12.5015 26.6064 12.5008 26.3107 12.5023C26.3122 12.8515 26.3114 13.2007 26.3114 13.55H25.8233V11.038ZM28.1488 13.0807C28.4618 12.401 28.7634 11.7156 29.0772 11.0359C29.2189 11.0373 29.3614 11.0381 29.5045 11.0388C29.8017 11.7206 30.1191 12.3938 30.4171 13.0757C30.4944 13.0786 30.5725 13.0814 30.6513 13.0836C30.6492 13.3418 30.6499 13.5992 30.6499 13.8566C30.4937 13.8573 30.3368 13.8573 30.1806 13.858C30.1799 13.7553 30.1799 13.6527 30.1792 13.55C29.5826 13.55 28.9861 13.5493 28.3895 13.5507C28.3895 13.6274 28.3903 13.7807 28.391 13.8573H27.9203V13.08C27.9774 13.08 28.0916 13.08 28.1488 13.0807ZM29.2833 11.7148C29.088 12.1718 28.8856 12.6252 28.6867 13.08H29.8878C29.6824 12.6266 29.4915 12.1675 29.2833 11.7148ZM30.2681 11.0373C30.464 11.0373 30.66 11.0373 30.8567 11.0366C31.0823 11.4661 31.2775 11.9115 31.5067 12.3396C31.6933 11.9043 31.8806 11.469 32.0736 11.0359C32.2486 11.0366 32.4236 11.0373 32.5993 11.0381C32.2255 11.8761 31.8415 12.7098 31.4669 13.5486C31.2891 13.5493 31.1105 13.55 30.9326 13.5507C31.0237 13.328 31.1633 13.1191 31.2139 12.884C30.9109 12.2629 30.5833 11.6534 30.2681 11.0373ZM35.0426 11.0373C35.5125 11.0373 35.9825 11.0373 36.4524 11.0381V11.5066C36.2958 11.5073 36.1388 11.5073 35.9825 11.5073V13.55H35.4945V11.508C35.3441 11.5073 35.193 11.5073 35.0426 11.5073V11.0373ZM36.6696 11.0381C37.0637 11.0576 37.4779 10.9759 37.8567 11.1176C38.3615 11.328 38.4273 12.1154 37.9992 12.4343C37.757 12.61 37.4431 12.6064 37.1575 12.6172C37.1575 12.9282 37.1575 13.2391 37.1569 13.55H36.6696V11.0381ZM37.1584 11.5037C37.1575 11.7163 37.1569 11.9289 37.156 12.1422C37.3484 12.1299 37.5747 12.1725 37.731 12.0308C37.8402 11.8855 37.8183 11.6288 37.639 11.5471C37.4879 11.4842 37.318 11.5131 37.1584 11.5037ZM38.5494 11.0373H39.0376C39.0376 11.6107 39.0368 12.1841 39.0376 12.7568C39.4064 12.1856 39.7649 11.6071 40.1345 11.0359C40.2929 11.0366 40.4511 11.0373 40.6104 11.0381V13.55H40.1401C40.1389 12.9723 40.1425 12.3952 40.1389 11.8182C39.7708 12.3923 39.4049 12.9672 39.0433 13.5457C38.8783 13.5486 38.7137 13.55 38.5494 13.5515V11.0373ZM41.8878 11.038C42.0158 11.0373 42.1447 11.0366 42.2734 11.0351C42.6312 11.8696 42.9711 12.712 43.3233 13.5493C43.1445 13.55 42.9667 13.55 42.7888 13.55C42.7035 13.3331 42.6168 13.1169 42.53 12.8999C42.2291 12.8985 41.9285 12.8978 41.6276 12.9021C41.5459 13.1191 41.4597 13.3345 41.3739 13.5493C41.196 13.55 41.0181 13.55 40.8408 13.5507C41.1859 12.7112 41.5394 11.8754 41.8878 11.038ZM42.081 11.7517C41.9934 11.978 41.9052 12.2036 41.817 12.4292H42.3456C42.2589 12.2029 42.1713 11.9766 42.081 11.7517ZM43.3369 13.5507C43.6703 12.7134 43.9971 11.8725 44.3349 11.0359C44.4757 11.0373 44.6176 11.0373 44.7592 11.0381C45.0869 11.8768 45.4229 12.7112 45.7519 13.5493C45.5734 13.55 45.3955 13.55 45.2176 13.55C44.9913 12.9412 44.773 12.3287 44.5417 11.7213C44.319 12.3316 44.0948 12.9405 43.8706 13.5507C43.6927 13.55 43.5142 13.55 43.3369 13.5507ZM45.979 11.0373H46.4673C46.4673 11.3562 46.4673 11.6751 46.4664 11.994C46.7738 11.9976 47.1157 11.9585 47.3798 12.1508C47.7999 12.4654 47.7447 13.2355 47.2532 13.4538C46.8517 13.6259 46.4021 13.5233 45.979 13.5493V11.0373ZM46.4679 12.4632C46.4673 12.6693 46.4664 12.8761 46.4673 13.0829C46.6437 13.075 46.8281 13.101 46.9992 13.046C47.2243 12.965 47.2358 12.6107 47.0231 12.5081C46.8482 12.4343 46.6517 12.4734 46.4679 12.4632ZM47.9315 11.0373H48.4194C48.4194 11.3692 48.4188 11.7004 48.4203 12.0323C48.7153 12.0315 49.0103 12.0315 49.3053 12.0315C49.3053 11.6997 49.3045 11.3685 49.3059 11.0373H49.7933V13.55H49.3053C49.3053 13.2007 49.3045 12.8515 49.3059 12.5023C49.0103 12.5015 48.7144 12.5015 48.4188 12.5023C48.4194 12.8515 48.4194 13.2007 48.4194 13.55H47.9315V11.0373ZM50.2273 11.0381C50.3892 11.0373 50.5518 11.0373 50.7152 11.0373V11.994C51.0232 11.999 51.371 11.9542 51.6336 12.1537C52.0623 12.4813 51.9835 13.2731 51.4657 13.4726C51.071 13.6158 50.6409 13.5247 50.2308 13.5522C50.222 12.7141 50.2293 11.8761 50.2273 11.0381ZM50.7152 12.4632C50.7146 12.6693 50.7152 12.8761 50.7152 13.0829C50.8925 13.0757 51.0769 13.0995 51.2504 13.0482C51.4976 12.9571 51.4737 12.542 51.215 12.4835C51.0501 12.4545 50.8816 12.4654 50.7152 12.4632ZM52.1434 11.0373H52.6133V13.55H52.1434V11.0373ZM53.0653 11.0373H53.5353C53.5359 11.615 53.5338 12.1928 53.5367 12.7705C53.9005 12.1921 54.2698 11.6172 54.6342 11.0395C54.7976 11.038 54.962 11.0373 55.126 11.0366V13.5493C54.9634 13.55 54.8006 13.55 54.6386 13.5507C54.6366 12.9759 54.6386 12.401 54.6371 11.8262C54.2704 12.3996 53.9055 12.9737 53.5423 13.55H53.0653V11.0373ZM23.3287 14.9781H24.8111V15.4481H23.8168C23.8168 15.61 23.8168 15.772 23.8175 15.934C24.1371 15.9427 24.5001 15.8993 24.7698 16.1082C25.0316 16.3158 25.0851 16.6976 24.9897 17.0012C24.8978 17.2818 24.6173 17.4669 24.3295 17.485C23.9961 17.5023 23.6621 17.4864 23.328 17.4901C23.3287 16.6527 23.3287 15.8154 23.3287 14.9781ZM23.8168 16.4032V17.0215C24.0851 17.0251 24.5674 17.0938 24.558 16.6932C24.5059 16.336 24.0764 16.4112 23.8168 16.4032ZM26.1921 14.9774C26.3187 14.9774 26.4445 14.9766 26.571 14.9759C26.9253 15.8118 27.2724 16.6513 27.6202 17.49C27.4416 17.4908 27.263 17.4908 27.0844 17.49C27.0027 17.2789 26.9195 17.0685 26.8357 16.8573C26.5334 16.8581 26.2304 16.8573 25.9282 16.8588C25.8472 17.0707 25.7633 17.2804 25.6802 17.4908C25.5016 17.4908 25.3223 17.4908 25.1437 17.49C25.4915 16.652 25.8385 15.8132 26.1921 14.9774ZM26.114 16.3881C26.2934 16.3881 26.472 16.3881 26.6513 16.3888C26.5623 16.1589 26.472 15.9296 26.3852 15.699C26.2926 15.9275 26.2015 16.1574 26.114 16.3881ZM27.8487 14.9774C28.0106 14.9781 28.1733 14.9781 28.336 14.9781V15.9904C28.6318 15.9904 28.9268 15.9904 29.2218 15.9897V14.9781H29.7099V17.4908H29.2218C29.2218 17.1415 29.2211 16.793 29.2232 16.4445C28.9275 16.4416 28.6318 16.4416 28.336 16.4423C28.336 16.7908 28.3353 17.1393 28.3382 17.4879C28.1748 17.4893 28.0114 17.4908 27.8479 17.4922C27.8479 16.6535 27.8479 15.8154 27.8487 14.9774ZM31.3766 14.9824C31.5739 14.9781 31.7706 14.9781 31.968 14.9781C31.6535 15.3924 31.3375 15.8045 31.0208 16.216C31.3317 16.6433 31.6491 17.0663 31.9644 17.4908C31.7388 17.4532 31.4062 17.6007 31.2739 17.3476C31.0599 17.0432 30.848 16.738 30.6296 16.438C30.6325 16.7887 30.6318 17.1401 30.6318 17.4908H30.1437V14.9781H30.6318C30.6318 15.3266 30.6318 15.6751 30.6311 16.0237C30.8856 15.6809 31.1336 15.3331 31.3766 14.9824Z" fill="#93130A"/>
</svg>
