<svg width="66" height="24" viewBox="0 0 66 24" fill="none" xmlns="http://www.w3.org/2000/svg">
<g clip-path="url(#clip0_1763_194264)">
<path d="M6.62476 7.16046C3.94214 7.16046 1.78601 9.34166 1.78601 11.9992C1.78601 14.6568 3.94214 16.838 6.62476 16.838C9.30738 16.838 11.4635 14.6818 11.4635 11.9992C11.4635 9.31659 9.30738 7.16046 6.62476 7.16046ZM5.97291 14.055L5.62191 15.108C4.29313 14.6568 3.39057 13.3781 3.39057 11.9491C3.39057 10.52 4.29313 9.26644 5.64698 8.79009L5.99798 9.84308C5.09541 10.1439 4.51877 10.9713 4.51877 11.924C4.46863 12.9268 5.07034 13.7793 5.97291 14.055ZM7.6276 15.1331L7.30168 14.055C8.22931 13.7542 8.83102 12.9268 8.83102 11.9491C8.83102 10.9713 8.22931 10.169 7.32675 9.86815L7.67775 8.79009C9.03159 9.24137 9.95923 10.52 9.95923 11.9491C9.93416 13.4283 9.00652 14.7069 7.6276 15.1331Z" fill="#00BEF0"/>
<path d="M54.4364 7.13605H54.662V16.8135H54.4364V7.13605Z" fill="black"/>
<path d="M58.3977 13.0773H57.6456V10.8459H58.9744V11.0716H57.9214V11.7986H58.4228C58.8741 11.7986 59.1499 11.9741 59.1499 12.4254V12.4505C59.1248 12.8516 58.849 13.0773 58.3977 13.0773ZM58.3727 12.8767C58.6986 12.8767 58.849 12.7263 58.849 12.4505V12.4254C58.849 12.1496 58.6986 11.9992 58.3476 11.9992H57.8712V12.8767H58.3727ZM59.4006 12.626C59.4006 12.2499 59.8017 12.1246 60.2279 12.1246H60.4786V12.0243C60.4786 11.7485 60.3784 11.6482 60.1276 11.6482C59.902 11.6482 59.7766 11.7485 59.7516 11.9491H59.4758C59.5259 11.573 59.8017 11.4476 60.1276 11.4476C60.4285 11.4476 60.7294 11.573 60.7294 12.0243V13.1274H60.4536V12.8767C60.3533 13.0271 60.1778 13.1274 59.9521 13.1274C59.6012 13.1274 59.4006 12.977 59.4006 12.626ZM60.4285 12.5257V12.3251H60.2029C59.8769 12.3251 59.6513 12.4254 59.6513 12.626C59.6513 12.8015 59.7516 12.9018 59.9521 12.9018C60.2029 12.9018 60.4285 12.7764 60.4285 12.5257ZM62.2086 12.3753H61.4063V13.1023H61.1305V11.4727H61.4063V12.1747H62.2086V11.4727H62.4843V13.1023H62.2086V12.3753ZM63.1613 12.2499V13.0773H62.8855V11.4476H63.1613V12.1998L63.8382 11.4476H64.139L63.437 12.1998L64.1892 13.0773H63.8883L63.1613 12.2499Z" fill="black"/>
<path d="M51.0275 12.8787L51.554 13.5305C51.0024 14.1072 50.3004 14.2576 49.7489 14.2576C49.2224 14.2576 48.8212 14.1573 48.4953 14.0069C47.7682 13.6559 47.4172 12.9288 47.4172 12.0513C47.4172 10.7226 48.3198 9.74478 49.6235 9.74478C51.1027 9.74478 51.8047 10.8479 51.7044 12.277H48.3449C48.3699 12.628 48.5705 12.979 48.8463 13.1545C49.097 13.3049 49.3728 13.3801 49.7739 13.3801C50.2252 13.4052 50.6514 13.2547 51.0275 12.8787ZM48.395 11.5248H50.7517C50.6765 11.0234 50.2503 10.5721 49.5984 10.5721C48.9215 10.5721 48.4953 11.0485 48.395 11.5248ZM25.9061 14.1322H27.1096L25.2041 11.926L27.0845 9.84506H25.9061L24.4771 11.4998H24.0509V9.84506H23.1232V14.1072H24.0509V12.4023H24.4771L25.9061 14.1322ZM29.8172 10.6223C29.04 10.6223 28.5135 11.224 28.5135 11.9761C28.5135 12.7283 29.015 13.33 29.8172 13.33C30.5945 13.33 31.0959 12.7533 31.0959 11.9761C31.1209 11.2491 30.6446 10.6223 29.8172 10.6223ZM29.9927 9.74478C31.1962 9.74478 32.0987 10.6724 32.0987 11.9761C32.0987 13.2547 31.2212 14.2325 29.9927 14.2325C29.4161 14.2325 28.9398 14.032 28.6138 13.681V15.9123H27.6862V9.87013H28.6138V10.3716C28.9398 9.94535 29.4161 9.74478 29.9927 9.74478ZM42.1523 9.87013H38.3415V10.7226H39.7956V14.1322H40.7232V10.7226H42.1774L42.1523 9.87013ZM22.4714 9.87013H18.6355V10.7226H20.0896V14.1322H21.0172V10.7226H22.4714V9.87013ZM17.5073 12.0012C17.5073 11.1989 16.9557 10.6223 16.1785 10.6223C15.4264 10.6223 14.8497 11.1989 14.8497 12.0012C14.8497 12.8035 15.4013 13.3801 16.1785 13.3801C16.9306 13.4052 17.5073 12.8285 17.5073 12.0012ZM13.8719 12.0012C13.8719 10.7226 14.8497 9.76985 16.1785 9.76985C17.4822 9.76985 18.4851 10.7226 18.4851 12.0012C18.4851 13.2798 17.5073 14.2576 16.1785 14.2576C14.8748 14.2576 13.8719 13.2798 13.8719 12.0012ZM46.6902 9.87013V14.1322H45.7876V11.3744L43.5563 14.1322H42.8292V9.87013H43.7568V12.628L45.9882 9.87013C45.9631 9.87013 46.6902 9.87013 46.6902 9.87013ZM37.6896 14.1322H36.762V9.87013H37.6896V14.1322ZM35.3329 12.6781C35.3329 12.302 35.0571 12.0263 34.7061 12.0263H33.7534V13.355H34.6811C35.0571 13.355 35.3329 13.0542 35.3329 12.6781ZM36.2355 12.6781C36.2355 13.5305 35.6087 14.1322 34.7061 14.1322H32.8258V9.87013H33.7534V11.2491H34.8064C35.709 11.2491 36.2355 11.8257 36.2355 12.6781Z" fill="black"/>
</g>
<defs>
<clipPath id="clip0_1763_194264">
<rect width="62.6781" height="9.77778" fill="white" transform="translate(1.66101 7.11108)"/>
</clipPath>
</defs>
</svg>
