<svg width="66" height="24" viewBox="0 0 66 24" fill="none" xmlns="http://www.w3.org/2000/svg">
<path d="M20.9887 5.81238L16.8618 9.93593H20.9887V18.1864L25.1123 14.073V5.81238H20.9887Z" fill="#EA5616"/>
<path d="M16.8604 18.1864L20.9873 14.0629H16.8604V5.81238L12.7368 9.9258V18.1864H16.8604ZM29.2378 16.123H31.4026V9.72993H34.6886V16.123H36.8534V7.87585H29.2378V16.123ZM50.2743 10.9626H48.4236V9.72993H52.5438V7.87247H46.2555V16.123H50.3756C52.0271 16.123 53.2631 15.2955 53.2631 13.5428C53.2631 11.79 52.0271 10.9626 50.2709 10.9626H50.2743ZM50.0649 14.3634H48.4202V12.7221H50.0649C50.5749 12.7221 51.0781 12.9248 51.0781 13.5428C51.0781 14.1608 50.5614 14.3634 50.0649 14.3634ZM42.1657 14.3634C40.7202 14.3634 39.9063 13.303 39.9063 11.9994C39.9063 10.9491 40.4973 9.63536 42.1218 9.63536C42.4858 9.6385 42.8448 9.72148 43.1734 9.87845C43.5017 10.0354 43.7918 10.2625 44.0231 10.5438L45.3402 9.22672C44.9343 8.74102 44.4264 8.35041 43.8526 8.08256C43.2791 7.81469 42.6537 7.67612 42.0205 7.67659C41.45 7.66153 40.8827 7.76328 40.3531 7.97561C39.8236 8.1879 39.343 8.50627 38.9408 8.91116C38.5389 9.31602 38.2238 9.79885 38.0154 10.3299C37.8067 10.861 37.7091 11.4292 37.728 11.9994C37.721 12.9089 38.0026 13.7972 38.5328 14.5363C39.0627 15.2754 39.8138 15.8273 40.6773 16.1123C41.5412 16.3974 42.473 16.4009 43.3389 16.1224C44.2048 15.8439 44.96 15.2978 45.4956 14.5627L44.1717 13.2388C43.9617 13.5873 43.6641 13.875 43.3085 14.0734C42.9532 14.2718 42.5524 14.3741 42.1454 14.3702" fill="#2C2D84"/>
</svg>
