<svg width="66" height="24" viewBox="0 0 66 24" fill="none" xmlns="http://www.w3.org/2000/svg">
<g clip-path="url(#clip0_1763_194288)">
<path d="M24.9115 12.4667H27.2018V13.1878H25.7692V13.9279H26.2457C26.5665 13.9279 26.9794 13.9661 27.2907 14.271C27.4242 14.4044 27.5894 14.649 27.5894 15.0429C27.5894 15.3606 27.4845 15.6433 27.2907 15.837C27.0176 16.1102 26.6237 16.1706 26.1726 16.1706H24.9115V12.4667ZM26.1059 15.4813C26.2234 15.4813 26.4331 15.4718 26.5665 15.3637C26.611 15.3256 26.7094 15.224 26.7094 15.0366C26.7094 14.8587 26.6205 14.7475 26.5443 14.6935C26.4108 14.5982 26.1948 14.595 26.1059 14.595H25.766V15.4845H26.1059V15.4813Z" fill="#2B2D33"/>
<path d="M29.895 13.6918H30.6955V16.1696H29.895V15.871C29.6789 16.2045 29.3676 16.2553 29.1611 16.2553C28.8055 16.2553 28.5068 16.1664 28.2336 15.8773C27.9731 15.6009 27.8715 15.2769 27.8715 14.9498C27.8715 14.5336 28.0271 14.1779 28.2558 13.9491C28.4718 13.7331 28.7736 13.6093 29.1168 13.6093C29.3263 13.6093 29.6662 13.6601 29.895 13.9714V13.6918ZM28.8784 14.4765C28.7959 14.559 28.6942 14.7052 28.6942 14.9275C28.6942 15.1499 28.7895 15.2928 28.8594 15.3722C28.9705 15.4898 29.1421 15.566 29.3327 15.566C29.4946 15.566 29.644 15.4993 29.7489 15.3945C29.8536 15.296 29.9425 15.1404 29.9425 14.9275C29.9425 14.7496 29.876 14.5845 29.7584 14.4733C29.6376 14.3557 29.4598 14.3017 29.3137 14.3017C29.1421 14.2986 28.9833 14.3716 28.8784 14.4765Z" fill="#2B2D33"/>
<path d="M31.1791 13.6929H31.9795V14.5538H32.8753V13.6929H33.6757V16.1707H32.8753V15.1986H31.9795V16.1707H31.1791V13.6929Z" fill="#2B2D33"/>
<path d="M34.1549 13.6929H34.9553V14.6777L35.7653 13.6929H36.7597L35.6986 14.8429L36.8327 16.1707H35.8003L34.9553 15.0716V16.1707H34.1549V13.6929Z" fill="#2B2D33"/>
<path d="M26.2163 7.70105C26.5371 7.70105 26.8929 7.74553 27.1883 8.00601C27.5059 8.28236 27.5504 8.65084 27.5504 8.90498C27.5504 9.37193 27.3725 9.63241 27.2328 9.77853C26.9373 10.0771 26.5498 10.1057 26.2893 10.1057H25.7684V11.4049H24.9139V7.70105H26.2163ZM25.7652 9.40687H26.0701C26.1877 9.40687 26.391 9.40053 26.5307 9.2671C26.607 9.19087 26.6705 9.06063 26.6705 8.90181C26.6705 8.74614 26.6165 8.61909 26.5307 8.53967C26.4037 8.41896 26.2194 8.3999 26.0542 8.3999H25.7652V9.40687Z" fill="#2B2D33"/>
<path d="M29.6376 8.92853H30.4382V11.4063H29.6376V11.1077C29.4216 11.4412 29.1103 11.492 28.9039 11.492C28.548 11.492 28.2494 11.4031 27.9763 11.114C27.7158 10.8377 27.6141 10.5137 27.6141 10.1865C27.6141 9.77033 27.7698 9.41455 27.9985 9.18584C28.2145 8.96984 28.5163 8.84594 28.8593 8.84594C29.069 8.84594 29.4089 8.89676 29.6376 9.20808V8.92853ZM28.6212 9.71314C28.5385 9.79574 28.4369 9.94185 28.4369 10.1642C28.4369 10.3866 28.5322 10.5295 28.6021 10.6089C28.7132 10.7265 28.8848 10.8027 29.0753 10.8027C29.2373 10.8027 29.3866 10.736 29.4914 10.6312C29.5963 10.5327 29.6852 10.377 29.6852 10.1642C29.6852 9.98633 29.6185 9.82115 29.501 9.70997C29.3803 9.59244 29.2025 9.53843 29.0562 9.53843C28.8879 9.53526 28.7258 9.60831 28.6212 9.71314Z" fill="#2B2D33"/>
<path d="M31.7222 8.92711V10.3439L32.7767 8.92711H33.52V11.4048H32.7195V9.96584L31.665 11.4048H30.9216V8.92711H31.7222ZM33.2277 7.92648C33.161 8.1266 33.0277 8.29815 32.8721 8.39979C32.6623 8.53956 32.4051 8.55544 32.2209 8.55544C32.0366 8.55544 31.7825 8.53956 31.5697 8.39979C31.414 8.30132 31.2806 8.1266 31.2138 7.92648L31.7697 7.71047C31.7921 7.82165 31.846 7.9106 31.9127 7.96461C31.9858 8.02496 32.0779 8.06308 32.2178 8.06308C32.3575 8.06308 32.4495 8.02496 32.5226 7.96461C32.5894 7.9106 32.6433 7.82165 32.6656 7.71047L33.2277 7.92648Z" fill="#2B2D33"/>
<path d="M35.2891 12.6406V11.443H35.2574C34.6951 11.443 34.3838 11.2112 34.2408 11.0714C34.0629 10.8999 33.8851 10.6044 33.8851 10.1534C33.8851 9.66418 34.1075 9.35288 34.3139 9.1877C34.5585 8.99392 34.9239 8.8891 35.2542 8.8891H35.2924V7.70105H36.0928V8.8891H36.1309C36.458 8.8891 36.8265 8.99392 37.0711 9.1877C37.2777 9.35288 37.5001 9.66418 37.5001 10.1534C37.5001 10.6044 37.3221 10.8967 37.1442 11.0714C37.0012 11.2112 36.6899 11.443 36.1276 11.443H36.0959V12.6406H35.2891ZM35.3272 9.53394C35.1398 9.52441 34.9429 9.58793 34.8285 9.70547C34.7332 9.80077 34.6665 9.95961 34.6665 10.1565C34.6665 10.3503 34.7332 10.5123 34.8285 10.6108C34.9334 10.7283 35.1239 10.8046 35.3272 10.7982V9.53394ZM36.0516 10.8014C36.258 10.8077 36.4454 10.7283 36.5502 10.614C36.6456 10.5155 36.7123 10.3535 36.7123 10.1597C36.7123 9.96595 36.6456 9.80396 36.5502 9.70864C36.4327 9.59112 36.2389 9.52441 36.0516 9.53711V10.8014Z" fill="#2B2D33"/>
<path d="M39.139 12.6406V11.443H39.1072C38.545 11.443 38.2337 11.2112 38.0908 11.0714C37.9128 10.8999 37.735 10.6044 37.735 10.1534C37.735 9.66418 37.9574 9.35288 38.1638 9.1877C38.4084 8.99392 38.7738 8.8891 39.1041 8.8891H39.1423V7.70105H39.9427V8.8891H39.9808C40.3081 8.8891 40.6766 8.99392 40.9211 9.1877C41.1276 9.35288 41.35 9.66418 41.35 10.1534C41.35 10.6044 41.1721 10.8967 40.9941 11.0714C40.8513 11.2112 40.54 11.443 39.9777 11.443H39.9458V12.6406H39.139ZM39.1771 9.53394C38.9897 9.52441 38.7928 9.58793 38.6784 9.70547C38.5831 9.80077 38.5164 9.95961 38.5164 10.1565C38.5164 10.3503 38.5831 10.5123 38.6784 10.6108C38.7833 10.7283 38.9738 10.8046 39.1771 10.7982V9.53394ZM39.9014 10.8014C40.1079 10.8077 40.2952 10.7283 40.4001 10.614C40.4954 10.5155 40.5622 10.3535 40.5622 10.1597C40.5622 9.96595 40.4954 9.80396 40.4001 9.70864C40.2826 9.59112 40.0888 9.52441 39.9014 9.53711V10.8014Z" fill="#2B2D33"/>
<path d="M43.605 8.92853H44.4054V11.4063H43.605V11.1077C43.3888 11.4412 43.0775 11.492 42.8711 11.492C42.5154 11.492 42.2168 11.4031 41.9436 11.114C41.6831 10.8377 41.5813 10.5137 41.5813 10.1865C41.5813 9.77033 41.737 9.41455 41.9658 9.18584C42.1817 8.96984 42.4835 8.84594 42.8267 8.84594C43.0363 8.84594 43.3762 8.89676 43.605 9.20808V8.92853ZM42.5884 9.71314C42.5059 9.79574 42.4041 9.94185 42.4041 10.1642C42.4041 10.3866 42.4995 10.5295 42.5693 10.6089C42.6804 10.7265 42.852 10.8027 43.0427 10.8027C43.2046 10.8027 43.354 10.736 43.4588 10.6312C43.5635 10.5327 43.6524 10.377 43.6524 10.1642C43.6524 9.98633 43.5859 9.82115 43.4684 9.70997C43.3476 9.59244 43.1697 9.53843 43.0236 9.53843C42.8551 9.53526 42.6932 9.60831 42.5884 9.71314Z" fill="#2B2D33"/>
<path d="M45.6886 8.92721V10.344L46.7433 8.92721H47.4865V11.4049H46.6861V9.96594L45.6314 11.4049H44.8881V8.92721H45.6886ZM47.1943 7.92658C47.1276 8.1267 46.9941 8.29825 46.8384 8.39989C46.6289 8.53966 46.3715 8.55554 46.1872 8.55554C46.003 8.55554 45.7489 8.53966 45.536 8.39989C45.3804 8.30142 45.2471 8.1267 45.1804 7.92658L45.7362 7.71057C45.7584 7.82175 45.8125 7.9107 45.8792 7.96471C45.9522 8.02506 46.0444 8.06318 46.1841 8.06318C46.3238 8.06318 46.416 8.02506 46.489 7.96471C46.5557 7.9107 46.6098 7.82175 46.632 7.71057L47.1943 7.92658Z" fill="#2B2D33"/>
<path d="M47.8902 9.14136C47.995 9.07465 48.1666 8.98571 48.3001 8.93489C48.4875 8.86818 48.6939 8.84594 48.8846 8.84594C49.0178 8.84594 49.4721 8.85547 49.7231 9.10008C49.8628 9.23349 49.9074 9.38914 49.9074 9.55432C49.9074 9.70997 49.8788 9.84975 49.758 9.9768C49.6976 10.0371 49.6247 10.088 49.5484 10.1166C49.7327 10.161 49.8471 10.2595 49.8819 10.2945C50.0027 10.412 50.0471 10.5454 50.0471 10.7042C50.0471 10.8758 49.9932 11.06 49.8311 11.222C49.6214 11.4285 49.3324 11.4889 48.9194 11.4889C48.697 11.4889 48.4653 11.4603 48.2429 11.3777C48.0267 11.2951 47.8649 11.1712 47.7981 11.1172L48.138 10.5899C48.2269 10.6661 48.3445 10.7455 48.4429 10.79C48.5478 10.8345 48.697 10.8662 48.8274 10.8662C48.9163 10.8662 49.0369 10.8504 49.1163 10.8059C49.2116 10.7519 49.2276 10.6725 49.2276 10.6185C49.2276 10.5359 49.183 10.4851 49.1101 10.4533C49.0433 10.4247 48.9099 10.4088 48.8209 10.4088H48.5223V9.86562H48.7511C48.8241 9.86562 48.9735 9.85609 49.0497 9.82115C49.1449 9.77669 49.1673 9.70361 49.1673 9.65596C49.1673 9.6115 49.1449 9.53843 49.0464 9.49397C49.0083 9.47807 48.9289 9.44949 48.7955 9.44949C48.6684 9.44949 48.5733 9.47173 48.4684 9.51621C48.3635 9.56067 48.281 9.6115 48.2015 9.6782L47.8902 9.14136Z" fill="#2B2D33"/>
<path d="M52.9443 10.3068H51.0955C51.0955 10.4402 51.1463 10.6181 51.2448 10.7292C51.3656 10.8626 51.5339 10.8849 51.6547 10.8849C51.7722 10.8849 51.8928 10.8626 51.9755 10.8118C51.9851 10.8055 52.0802 10.7451 52.1469 10.6053L52.903 10.6816C52.7919 11.031 52.5695 11.2152 52.4265 11.3042C52.1882 11.4471 51.9214 11.4884 51.6419 11.4884C51.2702 11.4884 50.943 11.4217 50.6541 11.1326C50.4379 10.9166 50.2823 10.5895 50.2823 10.1765C50.2823 9.82073 50.4095 9.45542 50.6603 9.19812C50.9589 8.89952 51.3339 8.84234 51.6101 8.84234C51.8864 8.84234 52.2868 8.89318 52.5948 9.21401C52.8904 9.52531 52.9443 9.91286 52.9443 10.221V10.3068ZM52.2073 9.83027C52.201 9.80803 52.1629 9.65238 52.0454 9.54119C51.9565 9.4586 51.8294 9.40141 51.6673 9.40141C51.4609 9.40141 51.3401 9.48401 51.2607 9.56343C51.2004 9.63014 51.1432 9.71908 51.121 9.83027H52.2073Z" fill="#2B2D33"/>
<path d="M53.3064 8.92721H54.1069V9.78807H55.0026V8.92721H55.8031V11.4049H55.0026V10.4329H54.1069V11.4049H53.3064V8.92721Z" fill="#2B2D33"/>
<path fill-rule="evenodd" clip-rule="evenodd" d="M20.3882 18.2882C21.932 18.2882 22.7896 17.4305 22.7896 15.8867V7.98339C22.7896 6.43958 21.932 5.58191 20.3913 5.58191H12.4849C10.941 5.58191 10.0834 6.43958 10.0834 7.98339V15.8867C10.0834 17.4305 10.941 18.2882 12.4849 18.2882H20.3882ZM18.2537 10.1009V11.3143L17.6375 11.9337L20.6743 14.9737L19.4735 16.1713L16.4367 13.1345L13.3999 16.1681L12.1992 14.9706L15.236 11.9337L14.6197 11.3207V10.1072L14.1814 9.66884V10.7203L13.8002 11.1015L12.2659 9.5672L11.8879 9.94522C11.8911 9.65933 11.9482 8.83024 12.6503 8.14093C13.4063 7.41032 14.2258 7.74069 14.5054 8.02022L16.0365 9.55133L15.6458 9.94203L16.4367 10.733L17.2277 9.93569L16.837 9.54497L18.3681 8.01386C18.6476 7.73433 19.4672 7.40397 20.2232 8.13456C20.9252 8.82388 20.9824 9.65297 20.9856 9.93886L20.6075 9.56084L19.0733 11.0951L18.6921 10.7139V9.6625L18.2537 10.1009Z" fill="#FEE600"/>
<path d="M18.2539 11.3151V10.1017L18.6923 9.66328V10.7147L19.0735 11.0959L20.6077 9.56163L20.9857 9.93964C20.9826 9.65375 20.9254 8.82466 20.2234 8.13535C19.4673 7.40475 18.6478 7.73511 18.3683 8.01464L16.8372 9.54575L17.2279 9.93647L16.4369 10.7338L15.6459 9.94281L16.0367 9.55211L14.5056 8.021C14.226 7.74147 13.4065 7.4111 12.6504 8.14171C11.9484 8.83102 11.8912 9.66011 11.8881 9.946L12.2661 9.56799L13.8003 11.1023L14.1816 10.7211V9.66963L14.6199 10.108V11.3214L15.2362 11.9345L12.1994 14.9713L13.4001 16.1689L16.4369 13.1353L19.4737 16.1721L20.6744 14.9745L17.6376 11.9345L18.2539 11.3151Z" fill="#2B2D33"/>
</g>
<defs>
<clipPath id="clip0_1763_194288">
<rect width="45.8333" height="12.8333" fill="white" transform="translate(10.0834 5.58331)"/>
</clipPath>
</defs>
</svg>
