<svg width="66" height="24" viewBox="0 0 66 24" fill="none" xmlns="http://www.w3.org/2000/svg">
<g clip-path="url(#clip0_1763_194301)">
<path d="M44.44 20.5548H19.2788L21.56 13.0974H46.7212L44.44 20.5548Z" fill="#00B2C3"/>
<path d="M30.0124 10.3012V5.63599H32.0637V7.17962H33.007V5.63599H35.0549V10.3012H33.007V8.75412H32.0637V10.3012H30.0124ZM40.1592 7.70445L40.9379 5.63599H38.938L38.3137 7.17962H37.9501V5.63599H35.8988V10.3012H37.9501V8.75412H38.4372L39.0615 10.3012H41.1094L40.1592 7.70445ZM44.7455 6.15053C44.4961 6.14225 44.2478 6.18723 44.0169 6.28246C43.7864 6.37769 43.5785 6.52099 43.4077 6.70281C43.4221 6.49234 43.4935 6.28976 43.6142 6.11688C43.7353 5.94401 43.901 5.80739 44.0938 5.72175C44.7798 5.43017 45.5756 5.63256 46.1519 5.14203V3.44403C45.7087 3.60084 45.2477 3.70223 44.7798 3.7459C44.0872 3.8186 43.419 4.04099 42.8211 4.39765C41.9876 4.92249 41.3941 5.76977 41.3941 7.52951C41.3941 9.80722 42.7113 10.4487 44.0697 10.4487C45.4281 10.4487 46.6013 9.76263 46.6013 8.27731C46.6013 6.84345 45.7472 6.15396 44.7387 6.15396L44.7455 6.15053ZM44.0011 8.87761C43.5072 8.87761 43.3905 8.48999 43.3905 8.19156C43.3905 7.89312 43.5072 7.5055 44.0011 7.5055C44.4951 7.5055 44.6014 7.88283 44.6014 8.19156C44.6014 8.50028 44.4848 8.87761 44.0011 8.87761ZM29.3023 7.96859C29.3023 6.82287 28.7878 5.7389 27.6078 5.51936L27.5117 5.50221C27.4431 5.50221 27.3711 5.48505 27.299 5.48162H27.0212C26.6804 5.49733 26.3505 5.60651 26.0676 5.79721C25.9081 5.90565 25.7658 6.03747 25.6456 6.18827L25.4535 5.63599H23.8413V12.1535H25.8995V10.0165C26.0581 10.1557 26.2421 10.2629 26.4415 10.3321C26.6749 10.4193 26.9231 10.46 27.1721 10.4521C28.6609 10.4521 29.3092 9.24809 29.3092 7.96516L29.3023 7.96859ZM26.4826 8.81244C26.3606 8.81415 26.2403 8.78325 26.1341 8.72294C26.028 8.66264 25.9399 8.57513 25.8789 8.46941V7.44032C25.942 7.33645 26.0306 7.25046 26.1362 7.19043C26.2419 7.1304 26.3611 7.09832 26.4826 7.09729C26.9766 7.09729 27.1927 7.52608 27.1927 7.94114C27.196 7.99253 27.196 8.04412 27.1927 8.09551C27.1875 8.27584 27.1136 8.44732 26.986 8.57489C26.8585 8.70243 26.6869 8.77639 26.5066 8.78157" fill="#2C384A"/>
</g>
<defs>
<clipPath id="clip0_1763_194301">
<rect width="27.4423" height="17.1111" fill="white" transform="translate(19.2788 3.44446)"/>
</clipPath>
</defs>
</svg>
