<svg width="66" height="25" viewBox="0 0 66 25" fill="none" xmlns="http://www.w3.org/2000/svg">
<path d="M35.8461 6.94403L30.0758 7.69785V9.40542L35.8461 8.89047V6.94403Z" fill="#E4003A"/>
<path fill-rule="evenodd" clip-rule="evenodd" d="M34.7532 10.8575L30.0753 7.69989V9.40343L31.5339 10.3914L31.8209 10.5589C31.2969 10.5652 31.0459 10.6716 30.7938 10.8238C30.0735 11.258 29.6997 12.0217 29.6997 13.1486C29.6997 15.0475 30.7478 15.9465 32.7444 15.9465C34.7411 15.9465 35.7944 15.0475 35.7944 13.1486C35.7944 12.0496 35.438 11.2981 34.7532 10.8575ZM32.7444 14.5581C31.7546 14.5581 31.443 14.1977 31.443 13.1632C31.443 12.1287 31.7522 11.7683 32.7444 11.7683C33.7366 11.7683 34.0406 12.1216 34.0406 13.1632C34.0406 14.2046 33.7419 14.5581 32.7444 14.5581ZM18.215 13.1632C18.215 14.1995 18.5242 14.5581 19.5163 14.5581C20.5085 14.5581 20.8125 14.1977 20.8125 13.1632C20.8125 12.1287 20.5131 11.7683 19.5163 11.7683C18.5194 11.7683 18.215 12.1216 18.215 13.1632ZM16.4716 13.1481C16.4716 11.2493 17.5267 10.3804 19.5163 10.3804C21.5059 10.3804 22.5657 11.2493 22.5657 13.1481C22.5657 15.0469 21.5176 15.946 19.5163 15.946C17.5151 15.946 16.4716 15.0469 16.4716 13.1481ZM11.5717 11.1952C11.7616 10.9545 12.5273 10.3734 13.4694 10.3734C15.0374 10.3734 15.9021 11.2185 15.9021 13.1382C15.9021 15.0578 15.0363 15.9111 13.4641 15.9111C12.5167 15.9111 11.7563 15.3403 11.5613 15.0945V17.632H9.90002V10.4978H11.5717V11.1952ZM11.5729 13.1341C11.5729 14.1692 11.8844 14.5289 12.8743 14.5289V14.5266C13.8711 14.5266 14.1698 14.1744 14.1698 13.1341C14.1698 12.0937 13.8664 11.7392 12.8743 11.7392C11.8821 11.7392 11.5729 12.0989 11.5729 13.1341ZM47.2256 10.5001V12.4372H45.02V10.5001H43.3483V15.7425H45.02V13.7786H47.2256V15.7425H48.8979V10.5001H47.2256ZM38.8077 15.9111C37.2344 15.9111 36.3697 15.0561 36.3697 13.1382C36.3697 11.2236 37.2338 10.3734 38.8019 10.3734C39.7434 10.3734 40.5091 10.9545 40.7001 11.1917V10.4943H42.3718V15.743H40.7099V15.0945C40.5149 15.3403 39.7545 15.9111 38.8077 15.9111ZM39.3975 11.7357C38.4001 11.7357 38.1014 12.0891 38.1014 13.1305C38.1007 14.1668 38.4059 14.5255 39.3975 14.5255C40.3892 14.5255 40.6983 14.171 40.6983 13.1305C40.6983 12.0902 40.395 11.7357 39.3975 11.7357ZM27.4166 13.8053C27.2861 14.3535 26.9368 14.558 26.1798 14.558C25.19 14.558 24.879 14.1976 24.879 13.1631C24.879 12.1286 25.19 11.7682 26.1798 11.7682C26.9368 11.7682 27.2861 11.9722 27.4171 12.5238L29.1605 12.3919C28.9002 11.0203 27.8795 10.3827 26.1798 10.3827C24.1902 10.3827 23.1357 11.2515 23.1357 13.1504C23.1357 15.0491 24.1837 15.9483 26.1798 15.9483C27.8783 15.9483 28.8886 15.2973 29.1552 13.9391L27.4166 13.8053ZM53.3278 12.9894L55.9737 15.7419H53.8245L51.5199 13.3282V13.4549V13.9088V15.7419H49.8779V10.5001H51.5199V12.7772L53.7634 10.5001H55.8316L53.3278 12.9894Z" fill="#00274F"/>
</svg>
