<svg width="66" height="25" viewBox="0 0 66 25" fill="none" xmlns="http://www.w3.org/2000/svg">
<g clip-path="url(#clip0_1763_194337)">
<path d="M30.0533 10.7286L31.2184 9.86888H27.3179V15.019H31.2184V14.1592H28.4323V12.8443H30.8131V11.9846H28.4323V10.7286H30.0533Z" fill="#21A038"/>
<path d="M24.3716 11.875H23.0208V10.7286H25.182L26.3471 9.86888H21.9063V15.019H24.228C25.5282 15.019 26.2796 14.429 26.2796 13.4006C26.2796 12.4144 25.6042 11.875 24.3716 11.875ZM24.1858 14.1592H23.0208V12.7347H24.1858C24.895 12.7347 25.2242 12.9707 25.2242 13.4512C25.2242 13.9317 24.8697 14.1592 24.1858 14.1592Z" fill="#21A038"/>
<path d="M34.3759 9.86888H32.2568V15.019H33.3713V13.5608H34.3844C35.7352 13.5608 36.5794 12.8527 36.5794 11.7148C36.5794 10.5769 35.7352 9.86888 34.3759 9.86888ZM34.3506 12.701H33.3628V10.7286H34.3506C35.0682 10.7286 35.4566 11.0827 35.4566 11.7148C35.4566 12.347 35.0682 12.701 34.3506 12.701Z" fill="#21A038"/>
<path d="M19.9983 13.9064C19.7028 14.0665 19.3736 14.1508 19.0359 14.1508C18.0312 14.1508 17.3052 13.4343 17.3052 12.4482C17.3052 11.462 18.0312 10.7455 19.0359 10.7455C19.3989 10.7371 19.7535 10.8551 20.049 11.0658L20.851 10.4758L20.8004 10.4252C20.336 10.0122 19.7113 9.80145 19.0021 9.80145C18.2338 9.80145 17.5331 10.0628 17.0266 10.5348C16.52 11.0237 16.233 11.7064 16.2499 12.4144C16.2414 13.1309 16.52 13.8221 17.0266 14.3278C17.5584 14.8251 18.2676 15.1033 18.9937 15.0864C19.7957 15.0864 20.4964 14.8083 20.9692 14.3025L20.2516 13.7715L19.9983 13.9064Z" fill="#21A038"/>
<path d="M49.9777 9.87731V15.0274H51.0921V12.9202H53.4645V15.0274H54.5789V9.87731H53.4645V11.993H51.0921V9.87731H49.9777ZM48.0613 15.0274H49.2348L47.0566 9.87731H45.9253L43.7049 15.0274H44.8278L45.2752 13.9907H47.6392L48.0613 15.0274ZM45.6129 13.1309L46.4741 11.0658L47.2846 13.1309H45.6129ZM57.0779 12.9455H57.7702L59.4756 15.019H60.9108L58.6313 12.3554L60.6237 9.86888H59.3489L57.6942 12.0773H57.0779V9.86888H55.9635V15.019H57.0779V12.9455ZM40.024 11.8834V10.7371H42.9367V9.87731H38.9096V15.0274H41.2313C42.5314 15.0274 43.2828 14.4374 43.2828 13.4091C43.2828 12.4229 42.6074 11.8834 41.3748 11.8834H40.024ZM40.024 12.7432H41.1891C41.8982 12.7432 42.2275 12.9792 42.2275 13.4596C42.2275 13.9401 41.8814 14.1761 41.1891 14.1761H40.024V12.7432Z" fill="#21A038"/>
<path d="M12.7607 9.83478C12.9633 10.0961 13.1322 10.3827 13.2757 10.6861L9.37527 13.5604L7.73743 12.5321V11.3014L9.36683 12.3213L12.7607 9.83478Z" fill="#21A038"/>
<path d="M6.07676 12.4475C6.07676 12.3885 6.07676 12.3379 6.08521 12.2789L5.09743 12.2283C5.09743 12.2958 5.08899 12.3716 5.08899 12.4391C5.08899 13.6191 5.57021 14.6896 6.34692 15.4651L7.04765 14.7655C6.44823 14.1754 6.07676 13.3578 6.07676 12.4475Z" fill="url(#paint0_linear_1763_194337)"/>
<path d="M9.36922 9.16081C9.42832 9.16081 9.47897 9.16081 9.53807 9.16924L9.58873 8.18305C9.52119 8.18305 9.4452 8.17462 9.37766 8.17462C8.19571 8.17462 7.12351 8.65507 6.3468 9.43054L7.04753 10.1301C7.63851 9.53169 8.46587 9.16081 9.36922 9.16081Z" fill="url(#paint1_linear_1763_194337)"/>
<path d="M9.37099 15.7348C9.3119 15.7348 9.26124 15.7348 9.20214 15.7263L9.15149 16.7125C9.21903 16.7125 9.29501 16.721 9.36255 16.721C10.5445 16.721 11.6167 16.2405 12.3934 15.465L11.6927 14.7654C11.1017 15.3723 10.2828 15.7348 9.37099 15.7348Z" fill="url(#paint2_linear_1763_194337)"/>
<path d="M11.2276 9.73362L12.0634 9.11831C11.3289 8.52828 10.3918 8.16583 9.37024 8.16583V9.15202C10.0625 9.16045 10.7042 9.37118 11.2276 9.73362Z" fill="url(#paint3_linear_1763_194337)"/>
<path d="M13.658 12.4475C13.658 12.1862 13.6327 11.9334 13.5905 11.6805L12.6703 12.3632C12.6703 12.3885 12.6703 12.4222 12.6703 12.4475C12.6703 13.4169 12.2481 14.285 11.5812 14.8835L12.2481 15.6168C13.1093 14.8414 13.658 13.7034 13.658 12.4475Z" fill="#21A038"/>
<path d="M9.37275 15.7346C8.40186 15.7346 7.53228 15.3132 6.93286 14.6473L6.19836 15.3132C6.98352 16.1814 8.11482 16.7208 9.37275 16.7208V15.7346Z" fill="url(#paint4_linear_1763_194337)"/>
<path d="M7.16585 10.0115L6.49889 9.27814C5.62931 10.062 5.08899 11.1915 5.08899 12.4474H6.07676C6.07676 11.4865 6.49889 10.6099 7.16585 10.0115Z" fill="url(#paint5_linear_1763_194337)"/>
</g>
<defs>
<linearGradient id="paint0_linear_1763_194337" x1="120.665" y1="323.903" x2="19.8522" y2="32.9625" gradientUnits="userSpaceOnUse">
<stop offset="0.1444" stop-color="#F2E913"/>
<stop offset="0.3037" stop-color="#E7E518"/>
<stop offset="0.5823" stop-color="#CADB26"/>
<stop offset="0.891" stop-color="#A3CD39"/>
</linearGradient>
<linearGradient id="paint1_linear_1763_194337" x1="34.5034" y1="122.333" x2="290.672" y2="24.8677" gradientUnits="userSpaceOnUse">
<stop offset="0.0592" stop-color="#0FA8E0"/>
<stop offset="0.5385" stop-color="#0099F9"/>
<stop offset="0.9234" stop-color="#0291EB"/>
</linearGradient>
<linearGradient id="paint2_linear_1763_194337" x1="3.35148" y1="126.193" x2="308.666" y2="57.2992" gradientUnits="userSpaceOnUse">
<stop offset="0.1226" stop-color="#A3CD39"/>
<stop offset="0.2846" stop-color="#86C339"/>
<stop offset="0.8693" stop-color="#21A038"/>
</linearGradient>
<linearGradient id="paint3_linear_1763_194337" x1="-10.9247" y1="71.2643" x2="242.981" y2="149.48" gradientUnits="userSpaceOnUse">
<stop offset="0.0566" stop-color="#0291EB"/>
<stop offset="0.79" stop-color="#0C8ACB"/>
</linearGradient>
<linearGradient id="paint4_linear_1763_194337" x1="31.314" y1="97.2546" x2="303.96" y2="198.961" gradientUnits="userSpaceOnUse">
<stop offset="0.1324" stop-color="#F2E913"/>
<stop offset="0.2977" stop-color="#EBE716"/>
<stop offset="0.5306" stop-color="#D9E01F"/>
<stop offset="0.8023" stop-color="#BBD62D"/>
<stop offset="0.9829" stop-color="#A3CD39"/>
</linearGradient>
<linearGradient id="paint5_linear_1763_194337" x1="80.2493" y1="338.12" x2="189.264" y2="54.988" gradientUnits="userSpaceOnUse">
<stop offset="0.0698" stop-color="#A3CD39"/>
<stop offset="0.2599" stop-color="#81C55F"/>
<stop offset="0.9216" stop-color="#0FA8E0"/>
</linearGradient>
<clipPath id="clip0_1763_194337">
<rect width="55.8221" height="8.55556" fill="white" transform="translate(5.08899 8.16669)"/>
</clipPath>
</defs>
</svg>
