<svg width="66" height="25" viewBox="0 0 66 25" fill="none" xmlns="http://www.w3.org/2000/svg">
<path d="M39.7481 16.1002V16.5423H38.9016V18.4398H38.4529V16.1037H39.7481V16.1002Z" fill="#00528E"/>
<path d="M40.819 16.1002C41.0399 16.1002 41.2233 16.1768 41.3731 16.3265C41.5226 16.4762 41.5975 16.6642 41.5975 16.8836C41.5975 17.1029 41.5226 17.2909 41.3731 17.4406C41.2233 17.5903 41.0399 17.6669 40.819 17.6669H40.4178V18.4363H39.9691V16.1002H40.819ZM40.819 17.2387C40.914 17.2387 40.9924 17.2038 41.0569 17.1377C41.1214 17.0716 41.1522 16.9845 41.1522 16.887C41.1522 16.786 41.1214 16.699 41.0569 16.6328C40.9924 16.5667 40.914 16.5319 40.819 16.5319H40.4178V17.2387H40.819Z" fill="#00528E"/>
<path d="M43.0423 16.1003H43.491L42.8076 17.7924C42.6241 18.245 42.3249 18.4609 41.9067 18.4365V18.0048C42.0291 18.0152 42.1276 17.9978 42.2025 17.9526C42.2774 17.9073 42.3384 17.8342 42.3894 17.7297L41.6414 16.0968H42.0905L42.5902 17.2249L43.0423 16.1003Z" fill="#00528E"/>
<path d="M45.4124 16.1002V18.4363H44.9637V16.5388H44.1579V18.4363H43.7092V16.1002H45.4124Z" fill="#00528E"/>
<path d="M47.5089 16.1002V18.4363H47.0602V16.5388H46.2544V18.4363H45.8057V16.1002H47.5089Z" fill="#00528E"/>
<path d="M49.3834 18.4363L49.2471 18.0151H48.3393L48.2034 18.4363H47.7172L48.5162 16.1002H49.0737L49.8761 18.4363H49.3834ZM48.4787 17.5868H49.1046L48.7918 16.6328L48.4787 17.5868Z" fill="#00528E"/>
<path d="M52.599 16.1003V18.4364H52.15V16.5389H51.3444V18.4364H50.8957V16.1003H52.599Z" fill="#00528E"/>
<path d="M54.0634 18.4849C53.7201 18.4849 53.4378 18.3666 53.2135 18.1333C52.9891 17.9 52.8771 17.6111 52.8771 17.2699C52.8771 16.9252 52.9891 16.6362 53.2135 16.4029C53.4378 16.1696 53.7201 16.0548 54.0634 16.0548C54.2711 16.0548 54.4615 16.1035 54.6348 16.2045C54.8082 16.3054 54.9476 16.4377 55.0426 16.6084L54.6549 16.8381C54.5974 16.7337 54.519 16.6501 54.4136 16.5944C54.3082 16.5352 54.1927 16.5074 54.0603 16.5074C53.839 16.5074 53.6591 16.577 53.5231 16.7198C53.3869 16.8625 53.3189 17.047 53.3189 17.2733C53.3189 17.4996 53.3869 17.6807 53.5231 17.8234C53.6591 17.9662 53.839 18.0358 54.0603 18.0358C54.1892 18.0358 54.3082 18.0079 54.4136 17.9488C54.519 17.8896 54.5974 17.8095 54.6518 17.7085L55.0392 17.9383C54.9407 18.1089 54.8047 18.2412 54.6314 18.3422C54.458 18.4432 54.2711 18.4849 54.0634 18.4849Z" fill="#00528E"/>
<path d="M56.1587 16.9845C56.3796 16.9845 56.5633 17.0507 56.7027 17.1864C56.8456 17.3222 56.9136 17.4963 56.9136 17.7087C56.9136 17.9246 56.8421 18.0986 56.7027 18.2344C56.5599 18.3702 56.3796 18.4363 56.1587 18.4363H55.2849V16.1002H56.7197V16.5423H55.7339V16.988H56.1587V16.9845ZM56.1587 18.0046C56.2471 18.0046 56.322 17.9768 56.3796 17.9245C56.4375 17.8723 56.468 17.7992 56.468 17.7052C56.468 17.6112 56.4375 17.5381 56.3796 17.4894C56.322 17.4371 56.2471 17.4128 56.1587 17.4128H55.7339V18.0046H56.1587Z" fill="#00528E"/>
<path d="M17.8222 17.0507C17.0233 16.4867 16.6699 15.9018 16.9723 15.3726C16.9723 15.3726 18.3118 13.489 17.3939 9.56171C17.3939 9.56171 19.9301 8.45105 20.3518 6.20192L18.4786 7.09322C18.5701 6.90521 18.645 6.71023 18.6995 6.5083C18.747 6.36207 18.798 6.18451 18.8285 6.02783L18.3732 6.24717L14.3782 8.12378C14.3578 8.13423 14.3408 8.14815 14.3342 8.16904C14.1199 8.63907 14.0485 9.19613 14.062 9.78453C13.6982 9.66268 13.3175 9.59302 12.9163 9.59302C12.3247 9.59302 11.7672 9.74275 11.271 9.99692C11.2675 9.98644 11.264 9.97254 11.2574 9.9621C11.2266 9.93076 11.1791 9.92379 11.1416 9.94816L10.6659 10.2511L10.5466 9.2936C10.5435 9.24835 10.5026 9.21353 10.4585 9.21007C10.4107 9.21007 10.3732 9.24488 10.3666 9.29013L10.2238 10.2441L9.75114 9.93076C9.71369 9.90638 9.66618 9.90985 9.63567 9.94119C9.60515 9.97254 9.59822 10.0213 9.62215 10.0596L9.91793 10.547L8.98273 10.6654C8.93523 10.6724 8.90125 10.7106 8.90125 10.7594C8.90125 10.8081 8.93523 10.8464 8.97961 10.8534L9.91099 10.9996L9.60169 11.4801C9.57776 11.5149 9.58123 11.5671 9.61174 11.5985C9.61868 11.6054 9.6322 11.6089 9.64226 11.6124C9.36347 12.1451 9.20396 12.7544 9.20396 13.3985C9.20396 15.4944 10.8698 17.2004 12.9163 17.2004C13.4229 17.2004 13.9056 17.096 14.3477 16.908C14.3782 16.9324 14.4056 16.9532 14.4396 16.9776C15.8811 18.0534 16.9144 17.6356 17.7272 17.9977C18.3968 18.2971 18.6891 18.8612 18.6891 18.8612L19.9166 18.4399C19.4405 17.5729 18.4377 17.4859 17.8222 17.0507ZM14.4871 8.28046L18.5466 6.37948C18.4852 6.61971 18.3968 6.85646 18.2848 7.08277L15.4389 8.43365C15.4185 8.44409 15.4015 8.45802 15.3949 8.4789C14.9088 9.56517 14.8748 11.0205 14.8474 12.3017C14.8373 12.737 14.8269 13.1478 14.7999 13.5029C14.7794 13.2488 14.7389 12.9667 14.6809 12.6708C14.657 12.5559 14.6334 12.4375 14.6095 12.3192C14.3307 10.9335 14.0145 9.35976 14.4871 8.28046ZM13.1067 14.5683C13.0217 14.4813 12.9402 14.2515 12.6445 14.1714C12.4981 14.1296 12.3553 14.147 12.2502 14.1714C12.1448 14.1958 11.9884 14.1749 11.8726 14.1227C11.8251 14.1052 11.7672 14.0739 11.7672 14.0739C11.6891 14.0391 11.6042 14.0043 11.5158 14.0147C11.383 14.0321 11.1895 14.161 11.1895 14.161L11.7911 14.4464C11.7911 14.4464 11.91 14.5021 11.995 14.6135C12.2467 14.9548 12.4541 15.0627 12.59 15.1289C13.0831 15.5432 13.253 15.9923 14.0485 16.6677C13.6951 16.7966 13.3109 16.8732 12.9128 16.8732C11.0397 16.8732 9.51673 15.3134 9.51673 13.3985C9.51673 12.6151 9.7716 11.8944 10.1967 11.313C10.1932 11.313 10.1898 11.313 10.1863 11.313L10.1933 11.306L10.3087 12.2669C10.3157 12.3122 10.3531 12.3505 10.4006 12.3505C10.4446 12.3505 10.4856 12.3157 10.4925 12.2704L10.6385 11.3164L11.1042 11.6333C11.1416 11.6577 11.1895 11.6542 11.22 11.6228C11.2505 11.5915 11.2574 11.5427 11.2335 11.5045L10.9377 11.017L11.876 10.8986C11.9201 10.8917 11.9575 10.8534 11.9575 10.8046C11.9575 10.7559 11.9236 10.7176 11.8795 10.7106L10.9478 10.5609C11.5022 10.1605 12.1753 9.92032 12.9063 9.92032C13.314 9.92032 13.7052 10.0004 14.0655 10.1362C14.1164 10.8673 14.2728 11.6367 14.4157 12.3609C14.4396 12.4793 14.4632 12.5942 14.4871 12.7126C14.6535 13.5586 14.7388 14.5021 14.4566 14.7493C13.9025 15.0557 13.253 14.718 13.1067 14.5683Z" fill="#00528E"/>
<path d="M22.9016 14.7179C22.1231 14.7179 21.4771 14.4533 20.9674 13.9206C20.4573 13.3914 20.2056 12.7333 20.2056 11.9569C20.2056 11.1735 20.4608 10.5155 20.9674 9.9898C21.4771 9.46059 22.1197 9.19598 22.9016 9.19598C23.3708 9.19598 23.8028 9.30739 24.2005 9.53372C24.5983 9.76001 24.9076 10.0629 25.1285 10.4494L24.2481 10.9716C24.1187 10.7349 23.9353 10.5469 23.7005 10.4146C23.4627 10.2823 23.1974 10.2126 22.9016 10.2126C22.3985 10.2126 21.9907 10.3728 21.6845 10.6966C21.3752 11.0203 21.2223 11.4382 21.2223 11.9569C21.2223 12.4687 21.3752 12.8865 21.6845 13.2068C21.9942 13.5306 22.3985 13.6908 22.9016 13.6908C23.1974 13.6908 23.4661 13.6246 23.704 13.4888C23.9422 13.3566 24.1256 13.172 24.2481 12.9388L25.1285 13.461C24.9076 13.844 24.5983 14.1503 24.204 14.3767C23.8129 14.6065 23.3777 14.7179 22.9016 14.7179Z" fill="#00528E"/>
<path d="M30.7313 9.30396V14.6134H29.7184V11.1701L28.2596 13.6351H28.1407L26.6822 11.1771V14.6134H25.659V9.30396H26.7096L28.1986 11.8142L29.681 9.30396H30.7313Z" fill="#00528E"/>
<path d="M35.4874 9.30396V14.6134H34.4676V10.3032H32.6384V14.61H31.6152V9.30396H35.4874Z" fill="#00528E"/>
<path d="M40.4384 11.3129C40.9416 11.3129 41.3528 11.466 41.6757 11.7724C41.9954 12.0788 42.1587 12.4757 42.1587 12.9597C42.1587 13.4506 41.9988 13.8475 41.6757 14.1539C41.3563 14.4602 40.9416 14.6134 40.4384 14.6134H38.4529V9.30396H41.7131V10.3067H39.4762V11.3163H40.4384V11.3129ZM40.4384 13.6351C40.6423 13.6351 40.8088 13.5759 40.9416 13.4575C41.074 13.3392 41.142 13.1721 41.142 12.9597C41.142 12.7473 41.074 12.5837 40.9416 12.4653C40.8088 12.3504 40.6389 12.2912 40.4384 12.2912H39.4762V13.6351H40.4384Z" fill="#00528E"/>
<path d="M46.0171 14.6135L45.7043 13.6561H43.6373L43.3245 14.6135H42.2194L44.035 9.30404H45.3031L47.1253 14.6135H46.0171ZM43.9671 12.6777H45.3881L44.6776 10.5087L43.9671 12.6777Z" fill="#00528E"/>
<path d="M50.5174 9.30396H51.5306V14.6134H50.5174V12.413H48.5932V14.6134H47.5699V9.30396H48.5932V11.4138H50.5174V9.30396Z" fill="#00528E"/>
<path d="M56.4648 14.6134H55.2883L53.4356 12.1241V14.6134H52.412V9.30396H53.4356V11.6471L55.2134 9.30396H56.3899L54.4724 11.8838L56.4648 14.6134Z" fill="#00528E"/>
<path d="M57.0987 15.5784H20.925L20.5848 15.1362H56.7555L57.0987 15.5784Z" fill="#E85919"/>
</svg>
