<svg width="66" height="25" viewBox="0 0 66 25" fill="none" xmlns="http://www.w3.org/2000/svg">
<g clip-path="url(#clip0_1763_194385)">
<path d="M6.57755 14.714C5.30431 14.714 4.26697 13.6925 4.26697 12.4382C4.26697 11.1839 5.30396 10.162 6.57685 10.162H6.72148V8.77783H6.5772C4.52991 8.77783 2.86279 10.4204 2.86279 12.4378C2.86279 14.4686 4.52991 16.1112 6.57755 16.1112H6.72183V14.7147H6.57755V14.714ZM15.5555 13.7184C15.2548 13.9618 14.8794 14.0941 14.4926 14.0934C13.5605 14.0934 12.8125 13.3562 12.8125 12.4378C12.8125 11.5198 13.5602 10.7827 14.4926 10.7827C14.8982 10.7809 15.2904 10.9281 15.5949 11.1962L16.1857 10.6145C15.7211 10.1963 15.1177 9.96569 14.4926 9.96752C13.101 9.96752 11.9854 11.08 11.9854 12.4378C11.9854 13.796 13.101 14.9211 14.4926 14.9211C15.1357 14.9211 15.7132 14.6884 16.1463 14.3005L15.5555 13.7184ZM42.2673 10.1617L40.4166 12.3602L38.5525 10.1617L38.5395 10.1876V10.1617H37.7911V14.7144H38.5395V11.3773L40.4166 13.5759L42.2673 11.4293V14.7144H43.0024V10.1617H42.2673ZM21.7511 12.4378C21.7511 13.809 20.6222 14.9081 19.244 14.9081C17.8528 14.9081 16.7372 13.796 16.7372 12.4378C16.7372 11.08 17.8658 9.96752 19.244 9.96752C20.6222 9.96752 21.7511 11.08 21.7511 12.4378ZM20.9111 12.4378C20.9111 11.5198 20.163 10.7827 19.231 10.7827C18.299 10.7827 17.5509 11.5198 17.5509 12.4378C17.5509 13.3562 18.299 14.0934 19.231 14.0934C20.163 14.0934 20.9111 13.3562 20.9111 12.4378ZM37.03 12.4378C37.03 13.809 35.9011 14.9081 34.5229 14.9081C33.1313 14.9081 32.0157 13.796 32.0157 12.4378C32.0157 11.08 33.1447 9.96752 34.5229 9.96752C35.9141 9.96752 37.03 11.08 37.03 12.4378ZM36.203 12.4378C36.203 11.5198 35.4549 10.7827 34.5229 10.7827C33.5908 10.7827 32.8428 11.5198 32.8428 12.4378C32.8428 13.3562 33.5908 14.0934 34.5229 14.0934C35.4415 14.0934 36.203 13.3562 36.203 12.4378ZM32.0027 10.1617H30.9917L29.0887 12.0759H28.3143V10.1617H27.5792V14.7144H28.3143V12.8131H29.0753L30.9787 14.7144H31.9764L29.7188 12.4508L32.0027 10.1617Z" fill="#FF4B5F"/>
<path d="M26.6341 13.395C26.6341 13.2151 26.5968 13.0371 26.5245 12.8723C26.4522 12.7075 26.3464 12.5595 26.2139 12.4377C26.4632 12.192 26.6341 11.8557 26.6341 11.4808C26.633 11.1301 26.4928 10.7942 26.2441 10.5468C25.9955 10.2995 25.6589 10.1609 25.3082 10.1616H22.6045V14.7269H25.3082C26.0433 14.7143 26.6341 14.1192 26.6341 13.395ZM23.3526 10.8991H25.2952C25.6235 10.8991 25.8857 11.1575 25.8857 11.4808C25.8857 11.8041 25.6235 12.0628 25.2952 12.0628H23.3526V10.8991ZM25.2952 13.9897H23.3526V12.813H25.3082C25.6365 12.813 25.899 13.0844 25.899 13.395C25.8857 13.718 25.6235 13.9897 25.2952 13.9897Z" fill="#FF4B5F"/>
<path d="M7.32511 8.85498V10.7562H6.57704C5.63202 10.7562 4.87061 11.5064 4.87061 12.4377C4.87061 13.3687 5.63202 14.1189 6.57668 14.1189H7.32511V16.0202C9.03119 15.6969 10.3048 14.2225 10.3048 12.4374C10.3048 10.6657 9.03154 9.19128 7.32511 8.85498Z" fill="#003791"/>
<path d="M63.1367 10.161H62.1398L60.2231 12.0753H59.4487V10.161H58.7136V14.7137H59.4487V12.8125H60.2231L62.1131 14.7137H63.1108L60.8662 12.4502L63.1367 10.161ZM52.2684 14.7134H53.0828L51.0478 10.161H50.2078L48.1734 14.7137H48.9872L49.4333 13.7308H51.8226L52.2684 14.7134ZM49.7619 13.0062L50.628 11.0923L51.4943 13.0062H49.7619Z" fill="#003791"/>
<path d="M57.0465 10.174V12.0753H54.3557V10.174H53.6077V14.7007H54.3557V12.8121H57.0465V14.7007H57.7949V10.174H57.0465ZM47.9109 13.3945C47.9109 12.6699 47.3071 12.0753 46.572 12.0753H44.6293V10.8982H47.4647V10.161H43.8813V14.7264H46.572C47.3071 14.7137 47.9109 14.1187 47.9109 13.3945ZM46.572 13.9892H44.6293V12.8125H46.572C46.9002 12.8125 47.1628 13.0838 47.1628 13.3945C47.1628 13.7175 46.9002 13.9892 46.572 13.9892Z" fill="#003791"/>
</g>
<defs>
<clipPath id="clip0_1763_194385">
<rect width="60.2745" height="7.33333" fill="white" transform="translate(2.86279 8.77783)"/>
</clipPath>
</defs>
</svg>
