<svg width="66" height="25" viewBox="0 0 66 25" fill="none" xmlns="http://www.w3.org/2000/svg">
<path d="M14.7709 9.54526H18.3612C19.9724 12.3501 22.2993 14.677 25.1042 16.2883V19.8786C22.7063 19.061 20.5279 17.7043 18.7365 15.9129C16.9451 14.1215 15.5885 11.9431 14.7709 9.54526Z" fill="#00AFAA"/>
<path d="M25.1149 9.54513L18.3612 9.54526C17.5061 8.06405 16.868 6.46783 16.4656 4.80554H20.3649C21.6229 4.80554 22.8295 5.30455 23.72 6.1931C24.6105 7.08165 25.1122 8.28714 25.1149 9.54513Z" fill="#00AFAA"/>
<path d="M25.0763 4.80554C25.3342 5.97368 25.9206 7.04376 26.7665 7.88964C27.6124 8.73554 28.6825 9.32197 29.8506 9.57985V4.80554H25.0763Z" fill="#00AFAA"/>
<path d="M25.1155 9.5448V16.2879C22.3106 14.6766 19.9837 12.3497 18.3724 9.5448H25.1155Z" fill="#00539B"/>
<path d="M37.7275 10.6552V15.4746H36.2518V10.6552H34.6927V9.52321H39.2865V10.6517L37.7275 10.6552ZM46.9671 10.0614C47.4605 9.66456 48.0702 9.44019 48.7032 9.42251C50.408 9.42251 51.2171 10.6239 51.2171 12.3461C51.2171 14.5232 49.9948 15.6343 48.2275 15.6343C46.4601 15.6343 45.5296 14.5232 45.5296 11.9607C45.5296 9.82876 46.0122 8.36001 46.7518 7.67946C47.599 6.89473 47.8629 6.91557 48.8559 6.65862C49.4671 6.50237 50.0573 6.40515 50.2865 6.3114L50.8247 7.53362C50.533 7.70723 49.9879 7.83571 48.9011 8.05446C47.6441 8.30098 47.0782 8.7489 46.9497 10.051L46.9671 10.0614ZM48.3143 14.4364C49.29 14.4364 49.6546 13.6447 49.6546 12.5128C49.6546 11.492 49.3525 10.6552 48.3698 10.6552C47.924 10.6284 47.4837 10.7641 47.1302 11.0371C47.0834 11.4984 47.0681 11.9625 47.0851 12.426C47.0643 13.6447 47.4601 14.4364 48.3143 14.4364ZM43.5573 15.4781L41.5712 12.7003V15.4781H40.0782V9.52321H41.5712V12.1308L43.3386 9.52321H44.9809L43.0573 12.2211L45.3177 15.485H43.5816L43.5573 15.4781Z" fill="#00539B"/>
<path d="M29.8507 14.274V18.1733C28.1902 17.7622 26.5958 17.1193 25.1146 16.2636V9.5448C25.7361 9.54435 26.3516 9.66629 26.926 9.90372C27.5004 10.1412 28.0223 10.4893 28.4621 10.9285C28.9019 11.3676 29.2509 11.8891 29.4892 12.4631C29.7274 13.0371 29.8503 13.6525 29.8507 14.274Z" fill="#F39A00"/>
</svg>
