<svg width="66" height="25" viewBox="0 0 66 25" fill="none" xmlns="http://www.w3.org/2000/svg">
<path d="M22.8963 13.9263C22.8908 13.4522 22.7852 12.9846 22.5866 12.5541C22.3879 12.1236 22.1006 11.7399 21.7435 11.428C21.8591 11.1128 21.9179 10.7796 21.917 10.4439C21.917 10.2596 21.8985 10.0777 21.8647 9.9027C21.6125 8.56754 20.4421 7.55554 19.0394 7.55554H15.6378V13.8236C15.6378 15.0302 14.6062 16.0128 13.338 16.0128C13.2981 16.0125 13.2582 16.0115 13.2182 16.0099C12.0058 15.9512 11.0378 14.9925 11.0378 13.8246V9.40599C11.0378 9.11363 11.2788 8.87603 11.5746 8.87603H12.9063C12.9937 8.8768 13.0804 8.86034 13.1615 8.82758C13.2425 8.79482 13.3163 8.7464 13.3786 8.6851C13.4408 8.6238 13.4905 8.55082 13.5245 8.47033C13.5586 8.38984 13.5764 8.30343 13.5771 8.21603C13.5771 7.85181 13.2764 7.55603 12.9063 7.55603H11.5751C10.5386 7.55603 9.69629 8.38568 9.69629 9.40599V9.99852H9.69678H9.69629V13.8246L9.69678 13.873C9.72562 15.7855 11.3468 17.3333 13.3385 17.3333C15.3464 17.3333 16.9802 15.7591 16.9802 13.8246V8.87554H19.0399C19.0536 8.87554 19.0668 8.87603 19.079 8.87799C19.9077 8.89901 20.575 9.59323 20.575 10.4439C20.5769 10.7567 20.485 11.0629 20.311 11.3229C20.1096 11.6339 20.1605 11.9761 20.4699 12.1491C20.7985 12.3254 21.0731 12.5876 21.2642 12.9077C21.4554 13.2279 21.556 13.594 21.5553 13.9668C21.5553 15.0194 20.7701 15.8882 19.7659 16.0011C19.6927 16.0088 19.6191 16.0127 19.5454 16.0128H17.3767C17.0071 16.0128 16.707 16.3091 16.707 16.6733C16.707 17.0385 17.0071 17.3333 17.3767 17.3333H19.545C21.3915 17.3333 22.8953 15.8227 22.8953 13.9673C22.8968 13.9531 22.8963 13.9399 22.8963 13.9263Z" fill="#CC163F"/>
<path d="M31.3311 9.04334C31.4465 9.04334 31.4856 9.1108 31.4465 9.2076L29.4679 14.6978C29.1208 15.6732 28.5801 16.0012 27.5862 16.0012C27.3256 16.0012 26.9878 15.9719 26.6597 15.8663C26.4955 15.8179 26.4569 15.7895 26.4862 15.6541L26.6407 14.8533C26.669 14.7086 26.7174 14.7281 26.8626 14.7472C27.0748 14.776 27.2293 14.7863 27.3936 14.7863C27.8282 14.7765 28.0301 14.7374 28.1846 14.3033L28.3396 13.8692H28.0883C27.7788 13.8692 27.683 13.8017 27.5476 13.4546L25.8487 9.22716C25.791 9.102 25.8682 9.04431 25.9836 9.04431H27.1032C27.3246 9.04431 27.373 9.08342 27.4214 9.23694L28.1357 11.1954L28.6764 12.7882H28.7439L29.2548 11.1187L29.8629 9.24622C29.9211 9.08245 29.9597 9.04334 30.1617 9.04334H31.3311V9.04285V9.04334ZM32.2756 15.2483V9.72827C32.2756 9.28436 32.4301 9.07218 32.8931 9.07218H36.657C36.8017 9.07218 36.8306 9.12009 36.8306 9.28436V10.1428C36.8306 10.2783 36.7915 10.3262 36.657 10.3262H33.7423V11.523H35.1508C37.4471 11.523 37.6021 13.0473 37.6021 13.7034C37.6021 14.9291 36.5886 15.8262 35.2857 15.8262H32.8549C32.3817 15.8272 32.2756 15.6629 32.2756 15.2483ZM35.1517 12.7491H33.7428V14.5433H35.142C35.8753 14.5433 36.0782 13.9938 36.0782 13.6267C36.0782 13.1256 35.7501 12.7491 35.1517 12.7491ZM40.1599 15.6248C40.1599 15.7983 40.1208 15.8276 39.9282 15.8276H38.9147C38.7602 15.8276 38.6928 15.7792 38.6928 15.6248V9.65151C38.6928 9.29462 38.8081 9.0624 39.2716 9.0624H41.6359C43.0351 9.0624 43.8945 9.95022 43.8945 11.1759C43.8945 11.832 43.6144 13.3759 41.4433 13.3759H40.1599V15.6248ZM41.4139 10.356H40.1589V12.1893H41.4232C42.0798 12.1893 42.3785 11.7845 42.3785 11.2722C42.3795 10.906 42.1961 10.356 41.4139 10.356ZM44.8107 10.9148C44.8107 10.7994 44.8591 10.7608 44.9843 10.7608H46.0168C46.1713 10.7608 46.2001 10.7901 46.2001 10.9153V13.8682H46.2485C46.7501 13.038 46.8377 12.8836 47.0014 12.6328C47.2425 12.2563 47.5421 11.764 47.966 11.0791C48.1493 10.8185 48.2364 10.7608 48.5644 10.7608H49.0372C49.3941 10.7608 49.5779 10.8762 49.5779 11.301V15.6727C49.5779 15.7978 49.529 15.8272 49.4043 15.8272H48.362C48.2168 15.8272 48.1787 15.8081 48.1787 15.6727V12.778H48.1303C47.8409 13.2219 47.5803 13.6751 47.3001 14.1097C47.0019 14.5727 46.7115 15.0459 46.403 15.5089C46.2295 15.7788 46.1136 15.8272 45.8046 15.8272H45.3509C44.907 15.8272 44.8107 15.6443 44.8107 15.2869V10.9148ZM52.4051 15.6248C52.4051 15.7983 52.366 15.8276 52.1734 15.8276H51.1604C51.0059 15.8276 50.9385 15.7792 50.9385 15.6248V9.65151C50.9385 9.29462 51.0543 9.0624 51.5173 9.0624H53.882C55.2808 9.0624 56.1402 9.95022 56.1402 11.1759C56.1402 11.832 55.8601 13.3759 53.6894 13.3759H52.4051V15.6248H52.4046H52.4051ZM53.6591 10.356H52.4051V12.1893H53.6694C54.3255 12.1893 54.6247 11.7845 54.6247 11.2722C54.6247 10.906 54.4413 10.356 53.6596 10.356H53.6591Z" fill="black" fill-opacity="0.85"/>
</svg>
