<svg width="66" height="25" viewBox="0 0 66 25" fill="none" xmlns="http://www.w3.org/2000/svg">
<path d="M29.1026 11.0772C28.4662 11.0772 27.9902 11.3127 27.7547 11.7022H27.7038V11.1969H26.5404V16.5498H27.7038V14.8529H27.7547C27.9889 15.2424 28.4662 15.478 29.1026 15.478C30.2965 15.478 31.2435 14.5028 31.2435 13.2769C31.2435 12.0523 30.2965 11.0772 29.1026 11.0772ZM28.8672 14.4188C28.218 14.4188 27.7038 13.9134 27.7038 13.2769C27.7038 12.6341 28.218 12.1351 28.8672 12.1351C29.5354 12.1351 30.0432 12.6341 30.0432 13.2769C30.0432 13.9198 29.529 14.4188 28.8672 14.4188Z" fill="#3B175C"/>
<path d="M55.1232 11.3912C54.4574 11.3912 53.9367 11.6433 53.6197 12.0812H53.5676C53.6541 11.2894 54.1024 10.9049 55.0669 10.7675L56.756 10.523V9.45242L54.9552 9.70832C53.2917 9.93999 52.4935 10.8209 52.4935 12.4084C52.4935 13.5566 52.5671 13.9194 52.772 14.3535C53.0942 15.0499 53.8923 15.4776 54.8572 15.4776C56.1565 15.4776 57.1595 14.5559 57.1595 13.3491C57.1584 12.1881 56.3296 11.3912 55.1232 11.3912ZM54.8443 14.4133C54.1826 14.4133 53.6937 13.9614 53.6937 13.3491C53.6937 12.7304 54.176 12.2785 54.8443 12.2785C55.4997 12.2785 55.9834 12.7304 55.9834 13.3491C55.9834 13.9614 55.4934 14.4133 54.8443 14.4133Z" fill="#3B175C"/>
<path d="M25.3205 9.93976L24.0108 12.58L22.2263 9.93976H20.8351L23.4253 13.7613L23.354 13.9065C23.242 14.1381 23.0944 14.2629 22.7533 14.2629H21.8368V15.3628H22.8831C23.6811 15.3628 24.0032 15.1604 24.3367 14.4946L26.6265 9.9385H25.3205V9.93976Z" fill="#3B175C"/>
<path d="M37.9638 11.2013L37.7652 13.7881C37.7347 14.1929 37.5985 14.3405 37.2764 14.3405H36.9914V15.3933H37.685C38.4653 15.3933 38.8115 15.0369 38.8675 14.2935L39.0202 12.2834H40.4509V15.3577H41.627V11.2013H37.9638Z" fill="#3B175C"/>
<path d="M44.6595 12.1471C45.1355 12.1471 45.5135 12.4144 45.693 12.7721L46.7329 12.38C46.4426 11.5895 45.6192 11.0778 44.6353 11.0778C43.3166 11.0778 42.3213 12.0287 42.3213 13.2788C42.3213 14.5276 43.3179 15.4798 44.6353 15.4798C45.6192 15.4798 46.4426 14.9681 46.7329 14.1775L45.693 13.7854C45.5135 14.1419 45.1355 14.4105 44.6595 14.4105C43.9976 14.4105 43.5203 13.9407 43.5203 13.2801C43.5203 12.6168 43.9976 12.1471 44.6595 12.1471Z" fill="#3B175C"/>
<path d="M50.4065 11.1953L48.6001 13.8381V11.1953H47.4369V15.3581H48.7236L50.5185 12.7344V15.3581H51.6817V11.1953H50.4065Z" fill="#3B175C"/>
<path d="M35.2393 11.7007H35.1885C34.9542 11.3112 34.4769 11.0757 33.8405 11.0757C32.6466 11.0757 31.6996 12.0508 31.6996 13.2767C31.6996 14.5013 32.6466 15.4777 33.8405 15.4777C34.4769 15.4777 34.953 15.2422 35.1885 14.8527H35.2393V15.3581H36.4027V11.1954H35.2393V11.7007ZM34.0773 14.4186C33.4154 14.4186 32.9012 13.9196 32.9012 13.2767C32.9012 12.6339 33.409 12.1348 34.0773 12.1348C34.7264 12.1348 35.2406 12.6339 35.2406 13.2767C35.2393 13.9132 34.7264 14.4186 34.0773 14.4186Z" fill="#3B175C"/>
<path fill-rule="evenodd" clip-rule="evenodd" d="M13.3443 7.86578C13.4035 7.86867 13.4651 7.87264 13.5294 7.8777V8.75717C13.5294 12.6323 13.6771 14.3074 14.25 16.8906C13.518 17.0737 12.7417 17.0737 12.011 16.8891C12.5876 14.2872 12.7364 12.612 12.7364 8.75717V7.8777C12.8135 7.87156 12.8863 7.86722 12.956 7.8647C13.0176 7.86217 13.0765 7.86108 13.1337 7.86108C13.2013 7.86108 13.271 7.86253 13.3443 7.86578ZM17.5562 12.7724C17.5562 11.2652 16.7352 9.94004 15.5018 9.18517L15.5184 10.2084C16.2516 10.8387 16.7161 11.7553 16.7161 12.7724C16.7161 12.9418 16.7029 13.1083 16.6776 13.2712C16.6336 13.5551 16.5532 13.8278 16.4425 14.0849C15.9118 13.5807 15.5336 12.9877 15.2983 12.2873C15.0144 11.4397 14.9481 10.5114 14.938 9.37732L14.9393 8.88973C14.8629 8.85686 14.7854 8.82616 14.707 8.79726C14.5243 8.73045 14.3368 8.67518 14.1463 8.63257L14.1476 9.37587C14.1743 13.2918 14.8528 14.9059 15.8621 16.1191C16.8943 15.34 17.5562 14.1308 17.5562 12.7724ZM12.1183 9.3766L12.1195 8.63329C11.9736 8.66615 11.8295 8.70625 11.6881 8.7532C11.5655 8.79365 11.4449 8.83952 11.3266 8.89045L11.3278 9.37804C11.3165 10.5111 11.2514 11.4404 10.9676 12.2881C10.7335 12.9884 10.3541 13.5804 9.82334 14.0857C9.75489 13.9264 9.69801 13.7613 9.65412 13.5916C9.5864 13.3294 9.54974 13.0552 9.54974 12.7731C9.54974 11.7546 10.013 10.8394 10.7474 10.2091L10.764 9.18589C9.52934 9.93932 8.70837 11.2645 8.70837 12.7731C8.70837 14.1315 9.3715 15.3408 10.4025 16.1198C11.4143 14.9081 12.0916 13.2925 12.1183 9.3766Z" fill="#3B175C"/>
</svg>
