<svg width="66" height="25" viewBox="0 0 66 25" fill="none" xmlns="http://www.w3.org/2000/svg">
<path d="M11.3385 7.84229V10.3021L13.3402 7.84229H11.3385ZM7.02819 9.01263C7.16782 8.78819 7.31781 8.61113 7.52549 8.44474L7.68317 8.33767C7.83222 8.25661 7.96711 8.20268 8.13379 8.16122C8.23473 8.14317 8.32777 8.1333 8.43176 8.12989C8.57077 8.13454 8.68979 8.15197 8.82488 8.18531C8.91965 8.21557 9.00542 8.24953 9.09538 8.29219C9.29975 8.40494 9.45516 8.53182 9.61161 8.70356L9.72917 8.85199C9.90159 9.10441 10.0131 9.35452 10.0954 9.64664L10.1399 9.84526C10.1457 9.87695 10.1506 9.90844 10.1546 9.93873V7.84229H6.72217V9.94438C6.76476 9.71254 6.833 9.40809 6.93761 9.18252L7.02819 9.01263ZM14.7711 8.18229L11.3385 12.4009V13.358C11.3425 13.3272 11.3477 13.2961 11.353 13.2648L11.3973 13.0665C11.4799 12.7742 11.5915 12.5238 11.7637 12.2713L11.8813 12.1222C12.0152 11.9767 12.1454 11.864 12.3136 11.7583C12.4002 11.71 12.4843 11.6705 12.5749 11.6338C12.7771 11.5702 12.9499 11.5456 13.1633 11.5519L13.3608 11.5807C13.5261 11.6221 13.6611 11.676 13.8094 11.7582C13.8918 11.809 13.9661 11.8628 14.0415 11.923C14.2647 12.1234 14.4201 12.3365 14.5561 12.6019L14.6339 12.7808C14.6966 12.9497 14.7415 13.1979 14.7712 13.365C14.7711 13.365 14.7711 8.18229 14.7711 8.18229Z" fill="#50B848"/>
<path d="M13.0615 15.1644C12.5773 15.1644 12.1827 14.5462 12.1827 13.7872C12.1827 13.0288 12.5773 12.4105 13.0615 12.4105C13.5465 12.4105 13.9415 13.0288 13.9415 13.7872C13.9415 14.5462 13.5465 15.1644 13.0615 15.1644ZM13.0615 12.0514C12.3755 12.0514 11.8164 12.8308 11.8164 13.7872C11.8164 14.7436 12.3756 15.5237 13.0615 15.5237C13.7472 15.5237 14.3072 14.7436 14.3072 13.7872C14.3077 12.8313 13.7472 12.0514 13.0615 12.0514Z" fill="#50B848"/>
<path d="M11.3973 14.5092L11.353 14.3101C11.3477 14.2786 11.3425 14.2477 11.3385 14.2173V16.3142H14.7711V14.2277C14.7278 14.4602 14.6601 14.7477 14.556 14.9738L14.4643 15.144C14.3247 15.3676 14.1752 15.544 13.9677 15.7112L13.8093 15.8176C13.6609 15.8997 13.526 15.953 13.3607 15.9945C13.2583 16.0125 13.165 16.0226 13.0615 16.026C12.923 16.0214 12.8032 16.0045 12.6682 15.9705C12.5736 15.9401 12.4876 15.9061 12.3977 15.8641C12.1934 15.7507 12.0378 15.6241 11.8812 15.4527L11.7636 15.3032C11.5915 15.0516 11.4804 14.8008 11.3973 14.5092ZM10.1547 10.7981C10.1509 10.829 10.1459 10.8599 10.1401 10.8915L10.0956 11.0899C10.0133 11.3823 9.90175 11.6328 9.72933 11.8846L9.61171 12.0338C9.47854 12.1792 9.34715 12.2918 9.17872 12.3982C9.09304 12.4455 9.00925 12.4852 8.91763 12.5221C8.71476 12.5863 8.54363 12.6109 8.33047 12.6032L8.13369 12.5758C7.96711 12.5343 7.83212 12.4805 7.68308 12.3982C7.60113 12.3468 7.52705 12.2929 7.45166 12.2329C7.22785 12.0319 7.07305 11.8203 6.93744 11.554C6.82908 11.305 6.77051 11.0701 6.72217 10.8014V15.9736L10.1547 11.7562V10.7981Z" fill="#50B848"/>
<path d="M8.43181 11.7451C7.94736 11.7451 7.55171 11.1271 7.55171 10.3688C7.55171 9.61028 7.94736 8.99091 8.43181 8.99091C8.91561 8.99091 9.30983 9.61038 9.30983 10.3688C9.30983 11.1271 8.91561 11.7451 8.43181 11.7451ZM8.43181 8.63281C7.74579 8.63281 7.18608 9.41211 7.18608 10.3687C7.18608 11.3245 7.74579 12.1039 8.43181 12.1039C9.11709 12.1039 9.67624 11.3244 9.67624 10.3687C9.67624 9.41221 9.11709 8.63281 8.43181 8.63281ZM10.1548 13.8551L8.15293 16.3144H10.1548V13.8551ZM14.6718 7.84229H13.7072L6.82552 16.3144H7.77598L14.6718 7.84229ZM11.0428 15.7312H10.4539V16.3144H11.0428V15.7312Z" fill="#50B848"/>
<path d="M15.068 15.7313V16.3145C15.4704 16.3145 15.7974 16.637 15.7974 17.0347C15.7974 17.4327 15.4704 17.7552 15.068 17.7552C14.7718 17.7552 14.5011 17.6888 13.9387 17.5507C12.849 17.2837 11.5074 16.9543 10.4329 16.6907C8.5018 16.2174 6.73024 16.7543 6.7228 18.0089H7.31146C7.31146 17.5425 8.21487 17.233 10.1495 17.7069C11.8228 18.1174 12.4521 18.2718 13.7124 18.5809C14.5444 18.7848 15.2264 18.7357 15.7166 18.5021L15.7184 18.5039C16.2085 18.2659 16.5455 17.7676 16.5455 17.1923C16.5456 16.385 15.8837 15.7313 15.068 15.7313ZM37.0805 14.2118H35.3546V15.0188H37.0805V14.2118ZM44.5579 13.6761H42.9272V12.0822H42.0123V16.3145H42.9272V14.4797H44.5579V16.3145H45.4724V12.0822H44.5579V13.6761ZM38.4632 14.7461V12.0821H37.5486V16.3144H38.2512L40.3783 13.6382V16.3144H41.2929V12.0821H40.5806L38.4632 14.7461ZM54.5666 11.9894C53.9702 11.9891 53.4404 12.1478 53.0151 12.5484C52.6525 12.8846 52.3363 13.4381 52.3363 14.2016C52.3353 14.8179 52.5278 15.351 53.0148 15.817C53.367 16.152 53.8251 16.4082 54.5605 16.4071C55.0146 16.4071 55.3526 16.2931 55.6058 16.1599L55.6354 16.1441V15.0196L55.5377 15.1353C55.3062 15.4079 54.9825 15.5665 54.6163 15.5668C54.2832 15.5668 53.9472 15.4475 53.6959 15.2199C53.4446 14.9918 53.2758 14.6566 53.2755 14.2139C53.2755 13.8471 53.4053 13.5003 53.6339 13.2465C53.8618 12.9926 54.1868 12.8304 54.5851 12.8301C54.7267 12.8304 55.1763 12.8591 55.538 13.2744L55.6357 13.3867V12.2655L55.6068 12.2497C55.2205 12.0405 54.863 11.9894 54.5666 11.9894ZM33.9947 13.8668C33.8395 13.9834 33.6587 13.9852 33.5038 13.985H33.2317V12.8855H33.4541C33.6434 12.8852 33.8405 12.8994 33.9895 13.0046C34.0953 13.0831 34.195 13.2196 34.195 13.429C34.1956 13.5932 34.1271 13.762 33.9947 13.8668ZM34.6956 12.4111C34.5385 12.2729 34.3729 12.1892 34.1895 12.142C34.0057 12.0944 33.8051 12.0822 33.5713 12.0822H32.317V16.3145H33.2317V14.7885H33.695C34.1807 14.7887 34.5378 14.6486 34.7784 14.4076C35.1108 14.0733 35.1342 13.6136 35.1345 13.4477C35.1345 13.1412 35.0449 12.7219 34.6956 12.4111ZM55.8987 12.0822V12.8856H56.8256V16.3146H57.7404V12.8856H58.6667V12.0822H55.8987ZM22.3825 16.3145H24.78V15.5111H23.297V14.4981H24.7182V13.6946H23.297V12.8855H24.78V12.0821H22.3825V16.3145ZM48.0966 15.2477C48.0619 15.3229 48.0067 15.3918 47.9181 15.4449C47.7564 15.5405 47.5434 15.5485 47.3967 15.5481H47.1064V14.5228H47.3473C47.52 14.5224 47.7164 14.5243 47.8736 14.598L47.8759 14.599L47.8742 14.5982C47.9927 14.6522 48.0573 14.7262 48.096 14.8025C48.134 14.8787 48.144 14.9584 48.144 15.0171C48.144 15.091 48.1314 15.1726 48.0966 15.2477ZM47.1064 12.8485H47.2853C47.4415 12.8485 47.5846 12.8829 47.6843 12.9562C47.7836 13.0297 47.8466 13.1376 47.8476 13.3119C47.8476 13.4344 47.819 13.5217 47.7765 13.5868C47.7132 13.6843 47.6145 13.7363 47.5158 13.7642C47.4181 13.7917 47.3239 13.7936 47.2791 13.7936H47.1064V12.8485ZM48.3356 14.0337C48.3901 13.9933 48.4521 13.9392 48.5109 13.8653C48.6196 13.729 48.7131 13.5281 48.7128 13.2499C48.7125 12.8889 48.5654 12.5516 48.308 12.3532C47.9544 12.0796 47.4963 12.083 47.2668 12.0821H46.1916V16.3144H47.6314C47.9953 16.3147 48.3888 16.2515 48.7122 15.967C49.0128 15.6989 49.0832 15.3412 49.0832 15.0911C49.0829 14.8672 49.0329 14.5294 48.769 14.2783C48.6781 14.1922 48.5417 14.0912 48.3356 14.0337ZM49.5793 16.3145H51.9769V15.5111H50.4939V14.4981H51.9149V13.6946H50.4939V12.8855H51.9769V12.0821H49.5793V16.3145ZM21.5056 12.0822H20.5909V15.5111H19.0713V12.0822H18.1567V16.3145H21.1471V17.2412H21.9997V15.5111H21.5056V12.0822ZM27.9212 13.6761H26.2903V12.0822H25.3757V16.3145H26.2903V14.4797H27.9212V16.3145H28.8358V12.0822H27.9212V13.6761ZM29.1923 12.8855H30.1193V16.3145H31.0338V12.8855H31.9605V12.0821H29.1925L29.1923 12.8855ZM26.1847 9.11516H24.9142V7.85021H24.165V11.2324H24.9142V9.77615H26.1847V11.2322H26.9342V7.85021H26.1847V9.11516ZM21.8348 9.91429L22.2224 8.94559L22.6017 9.91429H21.8348ZM21.9213 7.85021L20.486 11.2324H21.2992L21.5884 10.546H22.833L23.1222 11.2324H23.9294L22.534 7.85021H21.9213ZM28.8847 9.41802L30.3204 7.85021H29.3635L28.2439 9.13899V7.85021H27.4947V11.2324H28.2439V9.80702L28.2565 9.79465L29.3964 11.2325H30.3858L28.8847 9.41802ZM19.6106 10.4431C19.5368 10.5131 19.4008 10.5713 19.1539 10.5713L18.9059 10.5715V9.81063H19.1637C19.3977 9.81079 19.5308 9.86822 19.6059 9.94062C19.6809 10.0133 19.7055 10.1074 19.7059 10.2008C19.7054 10.2847 19.6843 10.3733 19.6106 10.4431ZM20.1473 9.42851C19.876 9.18914 19.5417 9.1496 19.2912 9.1496H18.906V8.5114H20.161V7.85031H18.1567V11.2325H19.2959C19.441 11.2323 19.6196 11.2214 19.7968 11.1634C19.9738 11.1058 20.1502 10.9994 20.2829 10.8115C20.4019 10.6406 20.4745 10.4281 20.4745 10.1956C20.4749 9.87205 20.3455 9.60548 20.1473 9.42851Z" fill="#50B848"/>
</svg>
