<svg width="66" height="25" viewBox="0 0 66 25" fill="none" xmlns="http://www.w3.org/2000/svg">
<path d="M20.5767 10.6987C20.0792 10.6987 19.6548 11.1174 19.6548 11.6149V12.4047H18.3789V10.6987H18.3367C17.8392 10.6987 17.412 11.1174 17.412 11.6149V14.7402H17.4542C17.9516 14.7402 18.3789 14.3215 18.3789 13.824V13.0623H19.6548V14.7402H20.6217V10.6987H20.5767ZM58.9854 10.6987C58.4878 10.6987 58.0608 11.1174 58.0608 11.6149V12.4047H56.7848V10.6987H56.7427C56.2452 10.6987 55.8178 11.1174 55.8178 11.6149V14.7402H55.8602C56.3577 14.7402 56.7821 14.3215 56.7821 13.824V13.0623H58.0578V14.7402H59.0248V10.6987H58.9854ZM15.1046 14.0264C14.5143 14.0264 14.1237 13.0595 14.1237 11.9269C14.1237 10.7942 14.5369 10.0017 15.1046 10.0017C15.6751 10.0017 16.1079 10.7942 16.1079 11.9269C16.1079 13.2085 15.7369 14.0264 15.1046 14.0264ZM15.1046 9.22034C13.9832 9.22034 13.2581 10.1871 13.1569 11.5924H12.0158V9.30183H12.0074C11.4509 9.30183 11.0209 9.74308 11.0209 10.2827V14.7402H11.0293C11.5745 14.7346 12.0158 14.2905 12.0158 13.7369V12.3147H13.1569C13.244 13.6357 13.9719 14.8245 15.1046 14.8245C16.4059 14.8245 17.0944 13.5682 17.0944 11.9325C17.0972 10.4036 16.3609 9.22034 15.1046 9.22034ZM24.0617 10.6987C23.7442 10.6987 23.4603 10.7999 23.2355 11.1596L21.9735 13.3518V10.6987H21.0067V14.7402H21.417C21.729 14.7402 22.0129 14.639 22.2433 14.2793L23.5755 12.0112V13.824C23.5755 14.3215 23.9999 14.7402 24.4974 14.7402H24.5424V10.6987H24.0617ZM43.4967 10.6987C43.1789 10.6987 42.8952 10.7999 42.6701 11.1596L41.4083 13.3518V10.6987H40.4414V14.7402H40.8518C41.164 14.7402 41.4477 14.639 41.6781 14.2793L43.0104 12.0112V13.824C43.0104 14.3215 43.4348 14.7402 43.9349 14.7402H43.9773V10.6987H43.4967ZM27.974 12.77C27.7492 12.2642 27.4147 11.9044 26.9313 11.7161L28.671 9.29902H27.5862L25.9055 11.6936V9.31027H25.883C25.3265 9.31027 24.9077 9.71498 24.9077 10.263V14.7402H24.9302C25.4867 14.7402 25.9026 14.3355 25.9026 13.7875V12.1264C26.4001 12.1264 26.7767 12.4581 26.9566 12.8909L27.6705 14.7374H28.7666L27.974 12.77ZM47.0912 10.6987H44.1852V11.4716H45.1633V14.7402H45.2054C45.7085 14.7402 46.113 14.3271 46.113 13.8296V11.4716H47.0912V10.6987ZM37.0802 14.0039C37.5271 13.5289 37.7406 12.6773 37.8419 12.0196L37.9064 11.435H38.6569L38.8872 14.0039H37.0802ZM39.781 13.9757L39.4493 10.7015H37.1335L36.9902 11.6824C36.8607 12.5564 36.6558 13.6525 35.8743 14.1219L35.9392 15.7942H35.9895C36.3718 15.7942 36.681 15.485 36.681 15.1028L36.6952 14.7402H39.3315L39.3679 15.7942H39.4185C39.8009 15.7942 40.11 15.485 40.11 15.1028L40.1435 14.1191L39.781 13.9757ZM62.1671 13.4474C61.9533 13.023 61.6977 12.6998 61.3154 12.5424L62.7461 10.7015H61.706L60.3204 12.5227V10.6987H59.3538V14.7402H59.3958C59.8933 14.7402 60.3204 14.3215 60.3204 13.824V12.9049C60.7222 12.9049 61.0119 13.2057 61.1721 13.557L61.7537 14.7402H62.7937L62.1671 13.4474ZM50.2756 14.0741H49.691V12.1433C49.8148 12.1152 50.031 12.073 50.2167 12.073C50.9165 12.073 51.3239 12.489 51.3239 13.0061C51.3266 13.5598 50.9333 14.0741 50.2756 14.0741ZM50.3206 11.3367C50.0816 11.3367 49.8287 11.376 49.6937 11.4125V10.145H50.9754C51.4335 10.145 51.8046 9.774 51.8046 9.3159V9.30183H48.7271V14.7402H50.2925C51.4646 14.7402 52.3385 14.1079 52.3385 13.0258C52.3359 12.0983 51.6106 11.3367 50.3206 11.3367ZM33.3281 12.4384C33.3281 11.7245 33.581 11.3423 34.1206 11.3282H34.1573C34.4241 11.3282 34.9216 11.4154 34.9498 12.2164L33.3281 12.4384ZM35.7873 12.6126C35.7873 11.4013 35.2027 10.7015 34.1487 10.7015C33.0808 10.7015 32.4315 11.5025 32.4315 12.7363C32.4315 14.0067 33.1315 14.7993 34.3063 14.7993C34.9554 14.7993 35.4106 14.639 35.6552 14.5097V13.7087C35.4106 13.883 35.0706 14.0994 34.399 14.0994C33.7945 14.0994 33.4602 13.7537 33.3814 13.0961L35.7846 12.7644V12.6126H35.7873ZM54.6742 14.2484C54.5815 14.2709 54.3425 14.2849 54.1402 14.2849C53.6202 14.2849 53.3167 14.0601 53.3167 13.5626C53.3167 12.8909 53.8281 12.7194 54.6712 12.6408V14.2484H54.6742ZM52.4593 13.5935C52.4593 14.3524 53.0158 14.7993 54.081 14.7993H54.2836C54.6573 14.7993 55.2783 14.7402 55.5454 14.6896V12.1208C55.5454 11.1118 54.8681 10.6987 54.0528 10.6987C53.4319 10.6987 52.9569 10.8785 52.704 11.0022V11.643C53.1283 11.4182 53.5106 11.2748 53.8926 11.2748C54.3538 11.2748 54.6712 11.4125 54.6712 11.9241V12.1911C53.4683 12.3091 52.4593 12.5536 52.4593 13.5935ZM30.259 14.1781C30.1213 14.1781 30.0145 14.1641 29.9189 14.1275V11.3788C30.0426 11.3367 30.1634 11.3142 30.3236 11.3142C30.9504 11.3142 31.2258 11.7695 31.2258 12.7363C31.2258 13.3827 31.06 14.1781 30.259 14.1781ZM30.3433 10.6987C29.7953 10.6987 29.3399 10.7914 28.9886 10.9797L28.9662 10.9938V16.3394H29.0167C29.5142 16.3394 29.9189 15.9291 29.9189 15.4316V14.7318C30.0566 14.7683 30.2449 14.7964 30.4529 14.7964C31.4984 14.7964 32.1842 13.9589 32.1842 12.7054C32.1842 11.4575 31.4928 10.6987 30.3433 10.6987Z" fill="black"/>
<path d="M6.71029 10.2092C6.7131 10.2064 6.7131 10.2036 6.71591 10.2008C6.76931 10.1249 6.74683 10.0687 6.71029 10.0377C6.68781 10.0181 6.16788 9.70332 6.16788 9.70332C6.13133 9.67803 6.10604 9.63585 6.10604 9.58527C6.10604 9.50937 6.151 9.45035 6.25782 9.41943C6.59224 9.32668 7.77269 9.27892 8.17177 9.27892C8.3095 9.27892 8.55121 9.27892 8.76478 9.28454L8.75638 9.2761C8.16895 8.77583 7.4045 8.47229 6.57258 8.47229C4.71481 8.47229 3.20837 9.97872 3.20837 11.8365C3.20837 12.6544 3.50066 13.402 3.98408 13.9837C4.40567 13.3767 5.45119 11.8787 5.67883 11.5723C5.94302 11.2182 6.54448 10.434 6.64567 10.302L6.65126 10.2963L6.71029 10.2092ZM4.5209 14.5037C5.08863 14.9421 5.79969 15.2007 6.57258 15.2007C8.43036 15.2007 9.93679 13.6943 9.93679 11.8365C9.93679 11.2744 9.79908 10.7432 9.55456 10.2795C9.66979 10.167 9.80471 9.98998 9.71477 9.77074C9.68667 9.70613 9.55738 9.55436 9.52364 9.51781L9.52927 9.53185C9.61077 9.77918 9.45056 9.93377 9.33251 10.0377C9.2679 10.0968 8.41347 10.9006 7.41294 11.7775C6.53044 12.5504 5.54113 13.3345 4.97058 13.7645C4.16677 14.366 4.00937 14.4531 4.00937 14.4531C3.9869 14.4644 3.95317 14.4756 3.92788 14.4756C3.88008 14.4756 3.83512 14.4531 3.80983 14.4194C3.80421 14.4306 3.80421 14.4391 3.80702 14.4447C3.89415 14.5852 4.03748 14.7454 4.11897 14.7454C4.1443 14.7454 4.18081 14.7342 4.20332 14.7229C4.2005 14.7201 4.26515 14.6864 4.5209 14.5037Z" fill="#E2001A"/>
<path d="M6.71459 10.2008C6.76517 10.1249 6.74551 10.0687 6.70896 10.0378C6.68649 10.0181 6.16655 9.70333 6.16655 9.70333C6.13001 9.67804 6.10472 9.63587 6.10472 9.58529C6.10472 9.50657 6.15249 9.45037 6.25649 9.41945C6.59092 9.3267 7.77137 9.27893 8.17044 9.27893C8.35876 9.27893 8.73536 9.27893 8.97988 9.29297C9.25532 9.30985 9.46611 9.36887 9.51951 9.50094C9.6207 9.76235 9.45205 9.92534 9.33119 10.035C9.26658 10.094 8.41497 10.8978 7.41161 11.7747C6.52909 12.5476 5.5398 13.3317 4.96926 13.7617C4.16545 14.3632 4.00805 14.4503 4.00805 14.4503C3.98557 14.4616 3.95184 14.4728 3.92374 14.4728C3.83943 14.4728 3.77478 14.4082 3.77478 14.3266C3.77478 14.2957 3.78322 14.2648 3.80007 14.2423C3.80007 14.2423 5.38522 11.9602 5.67188 11.5723C5.96136 11.1873 6.65276 10.2823 6.65276 10.2823C6.65276 10.2823 6.66401 10.2739 6.71459 10.2008Z" fill="#FEFEFE"/>
</svg>
