<svg width="24" height="25" viewBox="0 0 24 25" fill="none" xmlns="http://www.w3.org/2000/svg">
<path d="M14.5556 22.6112H11C10.7481 22.6112 10.537 22.5261 10.3667 22.3557C10.1963 22.1853 10.1111 21.9742 10.1111 21.7224V16.389C10.1111 16.1372 10.1963 15.9261 10.3667 15.7557C10.537 15.5853 10.7481 15.5001 11 15.5001H11.8889V12.8335H4.77778C4.28889 12.8335 3.87037 12.6594 3.52222 12.3112C3.17407 11.9631 3 11.5446 3 11.0557V7.50014C3 7.01125 3.17407 6.59273 3.52222 6.24458C3.87037 5.89643 4.28889 5.72236 4.77778 5.72236H6.55556V4.83347C6.55556 4.58162 6.64074 4.37051 6.81111 4.20014C6.98148 4.02977 7.19259 3.94458 7.44444 3.94458H18.1111C18.363 3.94458 18.5741 4.02977 18.7444 4.20014C18.9148 4.37051 19 4.58162 19 4.83347V8.38902C19 8.64088 18.9148 8.85199 18.7444 9.02236C18.5741 9.19273 18.363 9.27791 18.1111 9.27791H7.44444C7.19259 9.27791 6.98148 9.19273 6.81111 9.02236C6.64074 8.85199 6.55556 8.64088 6.55556 8.38902V7.50014H4.77778V11.0557H11.8889C12.3778 11.0557 12.7963 11.2298 13.1444 11.5779C13.4926 11.9261 13.6667 12.3446 13.6667 12.8335V15.5001H14.5556C14.8074 15.5001 15.0185 15.5853 15.1889 15.7557C15.3593 15.9261 15.4444 16.1372 15.4444 16.389V21.7224C15.4444 21.9742 15.3593 22.1853 15.1889 22.3557C15.0185 22.5261 14.8074 22.6112 14.5556 22.6112ZM11.8889 20.8335H13.6667V17.2779H11.8889V20.8335ZM8.33333 7.50014H17.2222V5.72236H8.33333V7.50014Z" fill="#6F77FE"/>
</svg>
